<svg width="1121" height="122" viewBox="0 0 1121 122" fill="none" xmlns="http://www.w3.org/2000/svg">
<g filter="url(#filter0_f_367_15501)">
<g clip-path="url(#clip0_367_15501)">
<g clip-path="url(#clip1_367_15501)">
<rect width="1105" height="723.194" transform="translate(8 8)" fill="#010101" fill-opacity="0.43"/>
<g clip-path="url(#clip2_367_15501)">
<rect width="1105" height="552.861" transform="translate(8 111.146)" fill="#0F0F0F" fill-opacity="0.18"/>
</g>
<g clip-path="url(#clip3_367_15501)">
<path d="M66.7492 31.5699C66.6815 31.3628 66.5923 31.1772 66.4816 31.0132C66.3729 30.8471 66.2427 30.7056 66.091 30.5888C65.9413 30.4719 65.7711 30.3827 65.5805 30.3212C65.3898 30.2597 65.1806 30.2289 64.953 30.2289C64.5798 30.2289 64.2405 30.3253 63.935 30.518C63.6295 30.7108 63.3865 30.9947 63.2061 31.37C63.0256 31.7452 62.9354 32.2055 62.9354 32.7509C62.9354 33.2963 63.0266 33.7567 63.2091 34.1319C63.3916 34.5071 63.6387 34.7911 63.9504 34.9838C64.262 35.1766 64.6127 35.273 65.0022 35.273C65.3631 35.273 65.6809 35.1961 65.9557 35.0423C66.2325 34.8865 66.4478 34.6671 66.6016 34.3841C66.7574 34.0991 66.8353 33.7638 66.8353 33.3784L67.0691 33.4276H65.1745V32.7509H67.5735V33.4276C67.5735 33.9463 67.4627 34.3974 67.2413 34.7809C67.0219 35.1643 66.7184 35.4616 66.3309 35.6728C65.9454 35.8819 65.5025 35.9865 65.0022 35.9865C64.4445 35.9865 63.9545 35.8553 63.5321 35.5928C63.1117 35.3304 62.7837 34.9572 62.5479 34.4733C62.3141 33.9894 62.1972 33.4153 62.1972 32.7509C62.1972 32.2527 62.2639 31.8047 62.3972 31.4069C62.5325 31.007 62.7232 30.6667 62.9692 30.3858C63.2153 30.1049 63.5064 29.8896 63.8427 29.7399C64.179 29.5902 64.5491 29.5154 64.953 29.5154C65.2852 29.5154 65.5948 29.5656 65.8819 29.6661C66.171 29.7645 66.4283 29.9049 66.6539 30.0874C66.8815 30.2679 67.0711 30.4842 67.2228 30.7364C67.3746 30.9865 67.4792 31.2644 67.5366 31.5699H66.7492ZM70.7621 35.9988C70.3069 35.9988 69.9143 35.8983 69.5842 35.6974C69.2561 35.4944 69.0029 35.2114 68.8245 34.8485C68.6482 34.4835 68.56 34.0591 68.56 33.5752C68.56 33.0913 68.6482 32.6648 68.8245 32.2957C69.0029 31.9246 69.251 31.6355 69.5688 31.4284C69.8887 31.2193 70.2618 31.1147 70.6883 31.1147C70.9344 31.1147 71.1774 31.1557 71.4173 31.2377C71.6572 31.3197 71.8755 31.453 72.0724 31.6376C72.2692 31.82 72.4261 32.062 72.5429 32.3634C72.6598 32.6648 72.7182 33.0359 72.7182 33.4768V33.7843H69.0767V33.1569H71.9801C71.9801 32.8904 71.9268 32.6525 71.8202 32.4434C71.7156 32.2342 71.5659 32.0692 71.3711 31.9482C71.1784 31.8272 70.9508 31.7667 70.6883 31.7667C70.3992 31.7667 70.1491 31.8385 69.9379 31.982C69.7287 32.1235 69.5678 32.308 69.455 32.5356C69.3422 32.7632 69.2858 33.0072 69.2858 33.2676V33.6859C69.2858 34.0427 69.3473 34.3451 69.4704 34.5932C69.5954 34.8393 69.7687 35.0269 69.9902 35.1561C70.2116 35.2832 70.4689 35.3468 70.7621 35.3468C70.9528 35.3468 71.1251 35.3201 71.2788 35.2668C71.4347 35.2114 71.569 35.1294 71.6818 35.0208C71.7945 34.91 71.8817 34.7727 71.9432 34.6086L72.6444 34.8055C72.5706 35.0433 72.4466 35.2525 72.2723 35.4329C72.098 35.6113 71.8827 35.7507 71.6264 35.8512C71.3701 35.9496 71.082 35.9988 70.7621 35.9988ZM74.5483 33.0585V35.9004H73.8224V31.1762H74.5237V31.9144H74.5852C74.6959 31.6745 74.864 31.4817 75.0896 31.3361C75.3151 31.1885 75.6063 31.1147 75.9631 31.1147C76.2829 31.1147 76.5628 31.1803 76.8027 31.3115C77.0426 31.4407 77.2292 31.6376 77.3625 31.9021C77.4957 32.1645 77.5624 32.4967 77.5624 32.8986V35.9004H76.8365V32.9478C76.8365 32.5766 76.7402 32.2875 76.5474 32.0804C76.3547 31.8713 76.0902 31.7667 75.7539 31.7667C75.5222 31.7667 75.3151 31.817 75.1326 31.9174C74.9522 32.0179 74.8097 32.1645 74.7051 32.3573C74.6005 32.55 74.5483 32.7837 74.5483 33.0585ZM78.8888 35.9004V31.1762H79.59V31.8898H79.6392C79.7253 31.656 79.8812 31.4663 80.1067 31.3208C80.3323 31.1752 80.5865 31.1024 80.8695 31.1024C80.9228 31.1024 80.9894 31.1034 81.0694 31.1055C81.1494 31.1075 81.2098 31.1106 81.2508 31.1147V31.8528C81.2262 31.8467 81.1699 31.8375 81.0817 31.8252C80.9956 31.8108 80.9043 31.8036 80.808 31.8036C80.5783 31.8036 80.3733 31.8518 80.1928 31.9482C80.0144 32.0425 79.873 32.1737 79.7684 32.3419C79.6659 32.508 79.6146 32.6976 79.6146 32.9109V35.9004H78.8888ZM83.9482 35.9988C83.493 35.9988 83.1003 35.8983 82.7702 35.6974C82.4421 35.4944 82.1889 35.2114 82.0105 34.8485C81.8342 34.4835 81.746 34.0591 81.746 33.5752C81.746 33.0913 81.8342 32.6648 82.0105 32.2957C82.1889 31.9246 82.437 31.6355 82.7548 31.4284C83.0747 31.2193 83.4479 31.1147 83.8744 31.1147C84.1204 31.1147 84.3634 31.1557 84.6033 31.2377C84.8432 31.3197 85.0616 31.453 85.2584 31.6376C85.4552 31.82 85.6121 32.062 85.729 32.3634C85.8459 32.6648 85.9043 33.0359 85.9043 33.4768V33.7843H82.2627V33.1569H85.1661C85.1661 32.8904 85.1128 32.6525 85.0062 32.4434C84.9016 32.2342 84.752 32.0692 84.5572 31.9482C84.3644 31.8272 84.1368 31.7667 83.8744 31.7667C83.5853 31.7667 83.3351 31.8385 83.1239 31.982C82.9148 32.1235 82.7538 32.308 82.641 32.5356C82.5283 32.7632 82.4719 33.0072 82.4719 33.2676V33.6859C82.4719 34.0427 82.5334 34.3451 82.6564 34.5932C82.7815 34.8393 82.9548 35.0269 83.1762 35.1561C83.3976 35.2832 83.655 35.3468 83.9482 35.3468C84.1389 35.3468 84.3111 35.3201 84.4649 35.2668C84.6207 35.2114 84.755 35.1294 84.8678 35.0208C84.9806 34.91 85.0677 34.7727 85.1292 34.6086L85.8305 34.8055C85.7567 35.0433 85.6326 35.2525 85.4583 35.4329C85.284 35.6113 85.0687 35.7507 84.8124 35.8512C84.5561 35.9496 84.2681 35.9988 83.9482 35.9988Z" fill="white" fill-opacity="0.5"/>
<path d="M66.6384 59.7287V58.7137H73.7247V59.7287H70.7536V68.1621H69.6095V59.7287H66.6384ZM74.607 68.1621V61.0758H75.6589V62.1462H75.7327C75.8619 61.7955 76.0956 61.511 76.4339 61.2927C76.7723 61.0743 77.1537 60.9651 77.5781 60.9651C77.6581 60.9651 77.758 60.9666 77.878 60.9697C77.9979 60.9728 78.0886 60.9774 78.1502 60.9836V62.0908C78.1133 62.0816 78.0287 62.0677 77.8964 62.0493C77.7672 62.0277 77.6304 62.017 77.4858 62.017C77.1413 62.017 76.8338 62.0893 76.5631 62.2338C76.2955 62.3753 76.0833 62.5721 75.9265 62.8243C75.7727 63.0735 75.6958 63.358 75.6958 63.6778V68.1621H74.607ZM81.5261 68.3282C81.077 68.3282 80.6695 68.2436 80.3035 68.0745C79.9375 67.9022 79.6468 67.6546 79.4315 67.3317C79.2163 67.0057 79.1086 66.612 79.1086 66.1506C79.1086 65.7447 79.1886 65.4156 79.3485 65.1634C79.5084 64.9081 79.7222 64.7082 79.9898 64.5636C80.2574 64.4191 80.5526 64.3114 80.8756 64.2407C81.2016 64.1669 81.5291 64.1084 81.8582 64.0654C82.2888 64.01 82.6379 63.9685 82.9055 63.9408C83.1761 63.91 83.373 63.8593 83.496 63.7885C83.6221 63.7178 83.6852 63.5948 83.6852 63.4195V63.3826C83.6852 62.9274 83.5606 62.5737 83.3115 62.3215C83.0654 62.0693 82.6917 61.9432 82.1904 61.9432C81.6706 61.9432 81.2631 62.057 80.9678 62.2846C80.6726 62.5122 80.465 62.7551 80.345 63.0135L79.3116 62.6444C79.4961 62.2138 79.7422 61.8786 80.0498 61.6387C80.3604 61.3957 80.6987 61.2265 81.0647 61.1312C81.4338 61.0328 81.7967 60.9836 82.1535 60.9836C82.3811 60.9836 82.6425 61.0112 82.9378 61.0666C83.2361 61.1189 83.5237 61.2281 83.8005 61.3942C84.0804 61.5602 84.3126 61.8109 84.4971 62.1462C84.6817 62.4814 84.7739 62.9304 84.7739 63.4933V68.1621H83.6852V67.2025H83.6298C83.556 67.3563 83.433 67.5208 83.2607 67.6961C83.0885 67.8715 82.8593 68.0206 82.5733 68.1437C82.2873 68.2667 81.9382 68.3282 81.5261 68.3282ZM81.6921 67.3501C82.1227 67.3501 82.4857 67.2656 82.7809 67.0964C83.0793 66.9272 83.3038 66.7089 83.4545 66.4413C83.6083 66.1737 83.6852 65.8923 83.6852 65.597V64.6005C83.639 64.6559 83.5375 64.7066 83.3807 64.7528C83.2269 64.7958 83.0485 64.8343 82.8455 64.8681C82.6456 64.8989 82.4503 64.9265 82.2596 64.9511C82.072 64.9727 81.9197 64.9911 81.8029 65.0065C81.5199 65.0434 81.2554 65.1034 81.0094 65.1864C80.7664 65.2664 80.5695 65.3879 80.4188 65.5509C80.2712 65.7108 80.1974 65.9292 80.1974 66.206C80.1974 66.5843 80.3373 66.8703 80.6172 67.0641C80.9002 67.2548 81.2585 67.3501 81.6921 67.3501ZM86.7612 70.8195V61.0758H87.8131V62.2015H87.9422C88.0222 62.0785 88.1329 61.9216 88.2744 61.7309C88.419 61.5372 88.625 61.3649 88.8926 61.2142C89.1633 61.0605 89.5293 60.9836 89.9906 60.9836C90.5873 60.9836 91.1132 61.1327 91.5684 61.4311C92.0236 61.7294 92.3788 62.1523 92.6341 62.6998C92.8894 63.2472 93.017 63.8931 93.017 64.6374C93.017 65.3879 92.8894 66.0384 92.6341 66.5889C92.3788 67.1364 92.0251 67.5608 91.573 67.8622C91.1209 68.1606 90.5996 68.3097 90.0091 68.3097C89.5539 68.3097 89.1894 68.2344 88.9157 68.0837C88.6419 67.9299 88.4313 67.7561 88.2836 67.5624C88.136 67.3655 88.0222 67.2025 87.9422 67.0733H87.85V70.8195H86.7612ZM87.8315 64.619C87.8315 65.1541 87.9099 65.6262 88.0668 66.0353C88.2237 66.4413 88.4528 66.7596 88.7542 66.9903C89.0556 67.2179 89.4247 67.3317 89.8614 67.3317C90.3166 67.3317 90.6965 67.2117 91.001 66.9718C91.3085 66.7289 91.5392 66.4028 91.693 65.9938C91.8498 65.5816 91.9283 65.1234 91.9283 64.619C91.9283 64.1207 91.8514 63.6717 91.6976 63.2718C91.5469 62.8689 91.3177 62.5506 91.0102 62.3169C90.7057 62.08 90.3228 61.9616 89.8614 61.9616C89.4185 61.9616 89.0464 62.0739 88.745 62.2984C88.4436 62.5198 88.216 62.8305 88.0622 63.2303C87.9084 63.6271 87.8315 64.09 87.8315 64.619Z" fill="white"/>
</g>
<rect x="222.631" y="40.4785" width="109.706" height="38.2528" rx="5.774" fill="#191919"/>
<path d="M238.001 55.2069V63.6055H236.984V56.2731H236.935L234.884 57.6346V56.6012L236.984 55.2069H238.001ZM240.416 63.6055V62.8673L243.188 59.8327C243.514 59.4773 243.782 59.1683 243.992 58.9059C244.203 58.6407 244.359 58.3919 244.46 58.1595C244.564 57.9244 244.616 57.6784 244.616 57.4214C244.616 57.1261 244.544 56.8705 244.402 56.6545C244.263 56.4385 244.071 56.2718 243.828 56.1542C243.585 56.0367 243.311 55.9779 243.008 55.9779C242.685 55.9779 242.404 56.0449 242.163 56.1788C241.925 56.31 241.741 56.4946 241.61 56.7324C241.481 56.9703 241.417 57.2491 241.417 57.569H240.449C240.449 57.0769 240.562 56.645 240.789 56.2731C241.016 55.9013 241.325 55.6115 241.716 55.4038C242.11 55.196 242.551 55.0921 243.041 55.0921C243.533 55.0921 243.969 55.196 244.349 55.4038C244.729 55.6115 245.027 55.8918 245.243 56.2444C245.459 56.5971 245.567 56.9894 245.567 57.4214C245.567 57.7303 245.511 58.0324 245.399 58.3277C245.289 58.6202 245.098 58.9469 244.825 59.3078C244.554 59.6659 244.178 60.1033 243.697 60.62L241.811 62.6377V62.7033H245.715V63.6055H240.416ZM250.148 63.7203C249.53 63.7203 249.003 63.5522 248.569 63.2159C248.134 62.8769 247.802 62.3861 247.572 61.7437C247.343 61.0985 247.228 60.3193 247.228 59.4062C247.228 58.4985 247.343 57.7235 247.572 57.081C247.805 56.4358 248.138 55.9437 248.573 55.6047C249.01 55.263 249.535 55.0921 250.148 55.0921C250.76 55.0921 251.283 55.263 251.718 55.6047C252.156 55.9437 252.489 56.4358 252.719 57.081C252.951 57.7235 253.067 58.4985 253.067 59.4062C253.067 60.3193 252.953 61.0985 252.723 61.7437C252.493 62.3861 252.161 62.8769 251.726 63.2159C251.292 63.5522 250.765 63.7203 250.148 63.7203ZM250.148 62.8181C250.76 62.8181 251.236 62.5228 251.575 61.9323C251.914 61.3418 252.083 60.4998 252.083 59.4062C252.083 58.679 252.005 58.0597 251.849 57.5485C251.696 57.0373 251.475 56.6477 251.185 56.3798C250.898 56.1118 250.552 55.9779 250.148 55.9779C249.541 55.9779 249.066 56.2772 248.725 56.876C248.383 57.472 248.212 58.3154 248.212 59.4062C248.212 60.1334 248.289 60.7513 248.442 61.2598C248.595 61.7683 248.815 62.1551 249.102 62.4203C249.392 62.6855 249.74 62.8181 250.148 62.8181ZM258.021 63.6055V55.2069H258.989V58.3072H259.071C259.142 58.1978 259.241 58.0584 259.366 57.8889C259.495 57.7166 259.678 57.5635 259.916 57.4296C260.156 57.2929 260.482 57.2245 260.892 57.2245C261.422 57.2245 261.89 57.3571 262.294 57.6223C262.699 57.8875 263.015 58.2634 263.242 58.7501C263.469 59.2367 263.582 59.8108 263.582 60.4724C263.582 61.1395 263.469 61.7177 263.242 62.2071C263.015 62.6937 262.7 63.071 262.298 63.3389C261.897 63.6041 261.433 63.7367 260.908 63.7367C260.504 63.7367 260.18 63.6697 259.936 63.5358C259.693 63.3991 259.506 63.2446 259.374 63.0724C259.243 62.8974 259.142 62.7525 259.071 62.6377H258.956V63.6055H258.021ZM258.973 60.456C258.973 60.9317 259.042 61.3514 259.182 61.715C259.321 62.0758 259.525 62.3588 259.793 62.5639C260.061 62.7662 260.389 62.8673 260.777 62.8673C261.182 62.8673 261.519 62.7607 261.79 62.5474C262.063 62.3315 262.268 62.0417 262.405 61.6781C262.544 61.3117 262.614 60.9044 262.614 60.456C262.614 60.0131 262.546 59.614 262.409 59.2586C262.275 58.9004 262.071 58.6175 261.798 58.4097C261.527 58.1992 261.187 58.0939 260.777 58.0939C260.383 58.0939 260.052 58.1937 259.785 58.3933C259.517 58.5901 259.314 58.8662 259.178 59.2217C259.041 59.5743 258.973 59.9858 258.973 60.456ZM265.062 65.9676V57.3066H265.997V58.3072H266.112C266.183 58.1978 266.282 58.0584 266.407 57.8889C266.536 57.7166 266.719 57.5635 266.957 57.4296C267.198 57.2929 267.523 57.2245 267.933 57.2245C268.463 57.2245 268.931 57.3571 269.335 57.6223C269.74 57.8875 270.056 58.2634 270.283 58.7501C270.51 59.2367 270.623 59.8108 270.623 60.4724C270.623 61.1395 270.51 61.7177 270.283 62.2071C270.056 62.6937 269.741 63.071 269.34 63.3389C268.938 63.6041 268.474 63.7367 267.949 63.7367C267.545 63.7367 267.221 63.6697 266.977 63.5358C266.734 63.3991 266.547 63.2446 266.416 63.0724C266.284 62.8974 266.183 62.7525 266.112 62.6377H266.03V65.9676H265.062ZM266.014 60.456C266.014 60.9317 266.083 61.3514 266.223 61.715C266.362 62.0758 266.566 62.3588 266.834 62.5639C267.102 62.7662 267.43 62.8673 267.818 62.8673C268.223 62.8673 268.56 62.7607 268.831 62.5474C269.104 62.3315 269.309 62.0417 269.446 61.6781C269.586 61.3117 269.655 60.9044 269.655 60.456C269.655 60.0131 269.587 59.614 269.45 59.2586C269.316 58.9004 269.113 58.6175 268.839 58.4097C268.569 58.1992 268.228 58.0939 267.818 58.0939C267.424 58.0939 267.094 58.1937 266.826 58.3933C266.558 58.5901 266.356 58.8662 266.219 59.2217C266.082 59.5743 266.014 59.9858 266.014 60.456ZM272.099 63.6055V57.3066H273.034V58.2908H273.116C273.248 57.9545 273.46 57.6934 273.752 57.5075C274.045 57.3189 274.396 57.2245 274.806 57.2245C275.222 57.2245 275.567 57.3189 275.844 57.5075C276.122 57.6934 276.34 57.9545 276.496 58.2908H276.561C276.722 57.9654 276.964 57.7071 277.287 57.5157C277.61 57.3216 277.996 57.2245 278.448 57.2245C279.011 57.2245 279.471 57.4009 279.83 57.7535C280.188 58.1035 280.367 58.6489 280.367 59.3898V63.6055H279.399V59.3898C279.399 58.925 279.272 58.5929 279.018 58.3933C278.763 58.1937 278.464 58.0939 278.119 58.0939C277.677 58.0939 277.333 58.2279 277.09 58.4958C276.847 58.761 276.725 59.0973 276.725 59.5046V63.6055H275.741V59.2914C275.741 58.9332 275.625 58.6448 275.392 58.4261C275.16 58.2046 274.861 58.0939 274.494 58.0939C274.243 58.0939 274.008 58.1609 273.789 58.2949C273.573 58.4288 273.398 58.6147 273.264 58.8526C273.133 59.0877 273.067 59.3597 273.067 59.6686V63.6055H272.099Z" fill="white"/>
<path d="M315.015 47.1553L318.765 53.651H311.265L315.015 47.1553Z" fill="#313134"/>
<path d="M315.015 72.0557L311.265 65.5599L318.765 65.5599L315.015 72.0557Z" fill="#313134"/>
<rect x="349.839" y="40.659" width="43.9611" height="16.3001" rx="8.15006" stroke="#4A7DFF" stroke-width="0.360875"/>
<path d="M359.486 52.8086V44.41H362.562C363.158 44.41 363.651 44.5085 364.042 44.7053C364.433 44.8994 364.726 45.1632 364.92 45.4968C365.114 45.8276 365.211 46.2007 365.211 46.6163C365.211 46.9662 365.147 47.2615 365.018 47.5021C364.89 47.7399 364.717 47.9313 364.501 48.0762C364.288 48.2184 364.053 48.3223 363.796 48.3879V48.4699C364.075 48.4836 364.347 48.5738 364.612 48.7405C364.88 48.9046 365.102 49.1383 365.277 49.4418C365.451 49.7453 365.539 50.1143 365.539 50.549C365.539 50.9782 365.438 51.3637 365.236 51.7055C365.036 52.0445 364.727 52.3138 364.309 52.5133C363.89 52.7102 363.356 52.8086 362.705 52.8086H359.486ZM360.753 51.7219H362.582C363.189 51.7219 363.624 51.6043 363.886 51.3692C364.149 51.1341 364.28 50.8402 364.28 50.4875C364.28 50.2223 364.213 49.979 364.079 49.7576C363.945 49.5361 363.754 49.3598 363.505 49.2285C363.259 49.0973 362.966 49.0317 362.627 49.0317H360.753V51.7219ZM360.753 48.0434H362.451C362.735 48.0434 362.991 47.9887 363.218 47.8794C363.448 47.77 363.629 47.6169 363.763 47.4201C363.9 47.2205 363.968 46.9854 363.968 46.7147C363.968 46.3675 363.847 46.0764 363.603 45.8412C363.36 45.6061 362.987 45.4886 362.484 45.4886H360.753V48.0434ZM368.777 52.948C368.377 52.948 368.017 52.8742 367.694 52.7266C367.371 52.5762 367.116 52.3589 366.927 52.0745C366.741 51.7902 366.648 51.4416 366.648 51.0288C366.648 50.6734 366.717 50.3809 366.853 50.1512C366.99 49.9216 367.175 49.7398 367.407 49.6058C367.639 49.4719 367.899 49.3707 368.186 49.3024C368.473 49.234 368.766 49.1821 369.064 49.1465C369.441 49.1028 369.747 49.0672 369.982 49.0399C370.217 49.0098 370.388 48.962 370.495 48.8964C370.601 48.8308 370.655 48.7241 370.655 48.5765V48.5478C370.655 48.1897 370.554 47.9122 370.351 47.7153C370.152 47.5185 369.854 47.4201 369.457 47.4201C369.045 47.4201 368.719 47.5117 368.481 47.6948C368.246 47.8753 368.084 48.0762 367.993 48.2977L366.841 48.0352C366.978 47.6525 367.177 47.3435 367.44 47.1084C367.705 46.8706 368.01 46.6983 368.354 46.5917C368.699 46.4823 369.061 46.4277 369.441 46.4277C369.692 46.4277 369.959 46.4577 370.241 46.5179C370.525 46.5753 370.79 46.6819 371.036 46.8377C371.285 46.9936 371.489 47.2164 371.647 47.5062C371.806 47.7932 371.885 48.1664 371.885 48.6257V52.8086H370.688V51.9474H370.638C370.559 52.106 370.44 52.2618 370.282 52.4149C370.123 52.568 369.919 52.6951 369.671 52.7963C369.422 52.8974 369.124 52.948 368.777 52.948ZM369.043 51.9638C369.382 51.9638 369.672 51.8968 369.913 51.7629C370.156 51.6289 370.34 51.4539 370.466 51.238C370.595 51.0193 370.659 50.7855 370.659 50.5367V49.7248C370.615 49.7685 370.53 49.8095 370.405 49.8478C370.282 49.8833 370.141 49.9148 369.982 49.9421C369.824 49.9667 369.669 49.9899 369.519 50.0118C369.368 50.0309 369.243 50.0474 369.142 50.061C368.904 50.0911 368.686 50.1417 368.49 50.2128C368.295 50.2838 368.14 50.3864 368.022 50.5203C367.907 50.6515 367.85 50.8265 367.85 51.0452C367.85 51.3487 367.962 51.5783 368.186 51.7342C368.41 51.8873 368.696 51.9638 369.043 51.9638ZM378.238 48.0475L377.127 48.2443C377.08 48.1022 377.007 47.9669 376.906 47.8384C376.807 47.7099 376.673 47.6046 376.504 47.5226C376.334 47.4406 376.122 47.3996 375.868 47.3996C375.521 47.3996 375.231 47.4775 374.999 47.6333C374.766 47.7864 374.65 47.9846 374.65 48.2279C374.65 48.4384 374.728 48.608 374.884 48.7364C375.04 48.8649 375.291 48.9702 375.638 49.0522L376.639 49.2819C377.219 49.4158 377.651 49.6222 377.935 49.9011C378.219 50.1799 378.361 50.5422 378.361 50.9878C378.361 51.3651 378.252 51.7014 378.033 51.9966C377.817 52.2892 377.515 52.5188 377.127 52.6856C376.741 52.8523 376.294 52.9357 375.786 52.9357C375.081 52.9357 374.505 52.7854 374.06 52.4846C373.614 52.1812 373.341 51.7506 373.239 51.1929L374.425 51.0124C374.498 51.3214 374.65 51.5551 374.88 51.7137C375.109 51.8695 375.409 51.9474 375.778 51.9474C376.18 51.9474 376.501 51.864 376.741 51.6973C376.982 51.5278 377.102 51.3214 377.102 51.078C377.102 50.8812 377.029 50.7158 376.881 50.5818C376.736 50.4479 376.513 50.3467 376.212 50.2784L375.146 50.0446C374.558 49.9107 374.124 49.6974 373.842 49.4049C373.563 49.1124 373.424 48.7419 373.424 48.2936C373.424 47.9217 373.528 47.5964 373.736 47.3175C373.943 47.0387 374.23 46.8213 374.597 46.6655C374.963 46.5069 375.383 46.4277 375.856 46.4277C376.536 46.4277 377.072 46.5753 377.463 46.8706C377.854 47.1631 378.113 47.5554 378.238 48.0475ZM384.43 48.0475L383.318 48.2443C383.272 48.1022 383.198 47.9669 383.097 47.8384C382.998 47.7099 382.864 47.6046 382.695 47.5226C382.525 47.4406 382.314 47.3996 382.059 47.3996C381.712 47.3996 381.422 47.4775 381.19 47.6333C380.958 47.7864 380.841 47.9846 380.841 48.2279C380.841 48.4384 380.919 48.608 381.075 48.7364C381.231 48.8649 381.482 48.9702 381.83 49.0522L382.83 49.2819C383.41 49.4158 383.842 49.6222 384.126 49.9011C384.41 50.1799 384.553 50.5422 384.553 50.9878C384.553 51.3651 384.443 51.7014 384.225 51.9966C384.009 52.2892 383.706 52.5188 383.318 52.6856C382.933 52.8523 382.486 52.9357 381.977 52.9357C381.272 52.9357 380.696 52.7854 380.251 52.4846C379.805 52.1812 379.532 51.7506 379.431 51.1929L380.616 51.0124C380.69 51.3214 380.841 51.5551 381.071 51.7137C381.301 51.8695 381.6 51.9474 381.969 51.9474C382.371 51.9474 382.692 51.864 382.933 51.6973C383.173 51.5278 383.294 51.3214 383.294 51.078C383.294 50.8812 383.22 50.7158 383.072 50.5818C382.927 50.4479 382.704 50.3467 382.404 50.2784L381.338 50.0446C380.75 49.9107 380.315 49.6974 380.033 49.4049C379.755 49.1124 379.615 48.7419 379.615 48.2936C379.615 47.9217 379.719 47.5964 379.927 47.3175C380.135 47.0387 380.422 46.8213 380.788 46.6655C381.154 46.5069 381.574 46.4277 382.047 46.4277C382.728 46.4277 383.264 46.5753 383.654 46.8706C384.045 47.1631 384.304 47.5554 384.43 48.0475Z" fill="#4A7DFF"/>
<rect x="399.935" y="40.659" width="49.9611" height="16.3001" rx="8.15006" stroke="#4AFFA1" stroke-width="0.360875"/>
<path d="M414.293 46.6163C414.249 46.2281 414.069 45.9274 413.751 45.7141C413.434 45.4981 413.035 45.3901 412.554 45.3901C412.21 45.3901 411.912 45.4448 411.66 45.5542C411.408 45.6608 411.213 45.8084 411.074 45.9971C410.937 46.183 410.869 46.3949 410.869 46.6327C410.869 46.8323 410.915 47.0045 411.008 47.1494C411.104 47.2943 411.228 47.416 411.381 47.5144C411.537 47.6101 411.704 47.6907 411.881 47.7563C412.059 47.8192 412.23 47.8712 412.394 47.9122L413.214 48.1254C413.482 48.191 413.757 48.2799 414.038 48.392C414.32 48.5041 414.581 48.6517 414.822 48.8349C415.062 49.018 415.256 49.245 415.404 49.5156C415.554 49.7863 415.63 50.1102 415.63 50.4875C415.63 50.9632 415.507 51.3856 415.261 51.7547C415.017 52.1238 414.663 52.4149 414.198 52.6282C413.736 52.8414 413.177 52.948 412.521 52.948C411.892 52.948 411.348 52.8482 410.889 52.6487C410.43 52.4491 410.07 52.1661 409.811 51.7998C409.551 51.4307 409.407 50.9933 409.38 50.4875H410.651C410.676 50.791 410.774 51.0439 410.946 51.2462C411.121 51.4457 411.344 51.5947 411.615 51.6932C411.888 51.7888 412.188 51.8367 412.513 51.8367C412.871 51.8367 413.19 51.7806 413.468 51.6686C413.75 51.5537 413.972 51.3952 414.133 51.1929C414.294 50.9878 414.375 50.7486 414.375 50.4752C414.375 50.2264 414.304 50.0227 414.162 49.8642C414.022 49.7056 413.832 49.5744 413.592 49.4705C413.354 49.3666 413.084 49.275 412.784 49.1957L411.791 48.9251C411.119 48.7419 410.586 48.4726 410.192 48.1172C409.801 47.7618 409.605 47.2916 409.605 46.7065C409.605 46.2226 409.737 45.8002 409.999 45.4394C410.262 45.0785 410.617 44.7983 411.065 44.5987C411.514 44.3964 412.02 44.2952 412.583 44.2952C413.151 44.2952 413.653 44.395 414.088 44.5946C414.525 44.7942 414.87 45.0689 415.121 45.4189C415.373 45.7661 415.504 46.1652 415.515 46.6163H414.293ZM417.821 55.1707C417.637 55.1707 417.471 55.1556 417.32 55.1256C417.17 55.0982 417.058 55.0682 416.984 55.0354L417.279 54.0306C417.503 54.0908 417.703 54.1168 417.878 54.1086C418.053 54.1004 418.207 54.0347 418.341 53.9117C418.478 53.7887 418.598 53.5878 418.702 53.3089L418.854 52.8906L416.549 46.5097H417.862L419.457 51.3979H419.522L421.118 46.5097H422.434L419.838 53.6493C419.718 53.9773 419.565 54.2548 419.379 54.4817C419.193 54.7114 418.971 54.8836 418.714 54.9985C418.458 55.1133 418.16 55.1707 417.821 55.1707ZM424.812 49.0686V52.8086H423.586V46.5097H424.763V47.5349H424.841C424.986 47.2014 425.213 46.9334 425.522 46.7311C425.834 46.5288 426.226 46.4277 426.699 46.4277C427.128 46.4277 427.504 46.5179 427.827 46.6983C428.149 46.876 428.399 47.1412 428.577 47.4939C428.755 47.8466 428.844 48.2826 428.844 48.8021V52.8086H427.617V48.9497C427.617 48.4931 427.499 48.1364 427.261 47.8794C427.023 47.6196 426.696 47.4898 426.281 47.4898C425.996 47.4898 425.743 47.5513 425.522 47.6743C425.303 47.7973 425.13 47.9778 425.001 48.2156C424.875 48.4508 424.812 48.7351 424.812 49.0686ZM433.428 46.5097V47.4939H429.988V46.5097H433.428ZM430.91 45.0006H432.137V50.9591C432.137 51.197 432.172 51.376 432.243 51.4963C432.314 51.6139 432.406 51.6945 432.518 51.7383C432.633 51.7793 432.757 51.7998 432.891 51.7998C432.99 51.7998 433.076 51.7929 433.15 51.7793C433.223 51.7656 433.281 51.7547 433.322 51.7465L433.543 52.7594C433.472 52.7867 433.371 52.8141 433.24 52.8414C433.108 52.8715 432.944 52.8879 432.748 52.8906C432.425 52.8961 432.124 52.8387 431.845 52.7184C431.567 52.5981 431.341 52.4122 431.169 52.1607C430.997 51.9091 430.91 51.5934 430.91 51.2134V45.0006ZM436.146 49.0686V52.8086H434.92V44.41H436.13V47.5349H436.208C436.355 47.1959 436.581 46.9266 436.884 46.727C437.188 46.5275 437.584 46.4277 438.074 46.4277C438.506 46.4277 438.883 46.5165 439.205 46.6942C439.531 46.8719 439.782 47.1371 439.96 47.4898C440.14 47.8397 440.231 48.2771 440.231 48.8021V52.8086H439.005V48.9497C439.005 48.4877 438.886 48.1295 438.648 47.8753C438.41 47.6183 438.079 47.4898 437.655 47.4898C437.366 47.4898 437.106 47.5513 436.876 47.6743C436.649 47.7973 436.47 47.9778 436.339 48.2156C436.21 48.4508 436.146 48.7351 436.146 49.0686Z" fill="#4AFFA1"/>
<rect x="456.031" y="40.659" width="65.9611" height="16.3001" rx="8.15006" stroke="#FFCF4A" stroke-width="0.360875"/>
<path d="M472.844 47.1412H471.565C471.516 46.8678 471.424 46.6272 471.29 46.4195C471.156 46.2117 470.992 46.0353 470.798 45.8905C470.604 45.7456 470.387 45.6362 470.146 45.5624C469.908 45.4886 469.655 45.4517 469.387 45.4517C468.903 45.4517 468.47 45.5733 468.087 45.8166C467.707 46.06 467.407 46.4167 467.185 46.887C466.966 47.3572 466.857 47.9313 466.857 48.6093C466.857 49.2928 466.966 49.8696 467.185 50.3399C467.407 50.8101 467.709 51.1655 468.091 51.4061C468.474 51.6467 468.905 51.767 469.383 51.767C469.648 51.767 469.9 51.7314 470.138 51.6604C470.378 51.5865 470.596 51.4785 470.79 51.3364C470.984 51.1942 471.148 51.0206 471.282 50.8156C471.419 50.6078 471.513 50.37 471.565 50.102L472.844 50.1061C472.776 50.5189 472.643 50.899 472.447 51.2462C472.252 51.5906 472.002 51.8886 471.696 52.1402C471.393 52.3889 471.045 52.5817 470.654 52.7184C470.264 52.8551 469.837 52.9234 469.375 52.9234C468.648 52.9234 468 52.7512 467.431 52.4067C466.863 52.0595 466.414 51.5633 466.086 50.9181C465.761 50.2729 465.598 49.5033 465.598 48.6093C465.598 47.7126 465.762 46.943 466.09 46.3005C466.418 45.6553 466.867 45.1605 467.435 44.816C468.004 44.4688 468.651 44.2952 469.375 44.2952C469.821 44.2952 470.236 44.3595 470.622 44.488C471.01 44.6137 471.358 44.7996 471.667 45.0457C471.976 45.289 472.232 45.587 472.434 45.9397C472.637 46.2896 472.773 46.6901 472.844 47.1412ZM475.06 55.1707C474.877 55.1707 474.71 55.1556 474.56 55.1256C474.409 55.0982 474.297 55.0682 474.223 55.0354L474.519 54.0306C474.743 54.0908 474.942 54.1168 475.117 54.1086C475.292 54.1004 475.447 54.0347 475.581 53.9117C475.717 53.7887 475.838 53.5878 475.942 53.3089L476.093 52.8906L473.789 46.5097H475.101L476.696 51.3979H476.762L478.357 46.5097H479.673L477.077 53.6493C476.957 53.9773 476.804 54.2548 476.618 54.4817C476.432 54.7114 476.211 54.8836 475.954 54.9985C475.697 55.1133 475.399 55.1707 475.06 55.1707ZM480.826 52.8086V46.5097H482.003V47.5349H482.08C482.212 47.1877 482.426 46.917 482.724 46.7229C483.022 46.5261 483.379 46.4277 483.795 46.4277C484.216 46.4277 484.568 46.5261 484.853 46.7229C485.14 46.9198 485.352 47.1904 485.488 47.5349H485.554C485.704 47.1986 485.943 46.9307 486.272 46.7311C486.6 46.5288 486.991 46.4277 487.444 46.4277C488.016 46.4277 488.482 46.6067 488.843 46.9649C489.206 47.323 489.388 47.863 489.388 48.5847V52.8086H488.162V48.6995C488.162 48.273 488.046 47.9641 487.813 47.7727C487.581 47.5814 487.304 47.4857 486.981 47.4857C486.582 47.4857 486.272 47.6087 486.05 47.8548C485.829 48.0981 485.718 48.4111 485.718 48.7939V52.8086H484.496V48.6216C484.496 48.2799 484.389 48.0051 484.176 47.7973C483.963 47.5896 483.685 47.4857 483.344 47.4857C483.111 47.4857 482.897 47.5472 482.7 47.6702C482.506 47.7905 482.348 47.9586 482.228 48.1746C482.111 48.3906 482.052 48.6408 482.052 48.9251V52.8086H480.826ZM491.13 52.8086V44.41H492.356V47.5308H492.43C492.501 47.3996 492.604 47.2478 492.738 47.0756C492.872 46.9034 493.057 46.753 493.295 46.6245C493.533 46.4933 493.848 46.4277 494.239 46.4277C494.747 46.4277 495.201 46.5562 495.6 46.8131C495.999 47.0701 496.312 47.4406 496.539 47.9245C496.769 48.4084 496.884 48.9907 496.884 49.6714C496.884 50.3522 496.77 50.9359 496.543 51.4225C496.316 51.9064 496.005 52.2796 495.608 52.542C495.212 52.8018 494.759 52.9316 494.251 52.9316C493.868 52.9316 493.555 52.8674 493.312 52.7389C493.071 52.6104 492.882 52.46 492.746 52.2878C492.609 52.1155 492.504 51.9625 492.43 51.8285H492.328V52.8086H491.13ZM492.332 49.6591C492.332 50.102 492.396 50.4902 492.524 50.8238C492.653 51.1573 492.839 51.4184 493.082 51.607C493.325 51.7929 493.623 51.8859 493.976 51.8859C494.342 51.8859 494.649 51.7888 494.895 51.5947C495.141 51.3979 495.327 51.1313 495.452 50.7951C495.581 50.4588 495.645 50.0802 495.645 49.6591C495.645 49.2436 495.582 48.8704 495.456 48.5396C495.333 48.2088 495.148 47.9477 494.899 47.7563C494.653 47.565 494.345 47.4693 493.976 47.4693C493.621 47.4693 493.32 47.5609 493.074 47.744C492.831 47.9272 492.646 48.1828 492.52 48.5109C492.394 48.839 492.332 49.2217 492.332 49.6591ZM500.093 52.948C499.694 52.948 499.333 52.8742 499.011 52.7266C498.688 52.5762 498.433 52.3589 498.244 52.0745C498.058 51.7902 497.965 51.4416 497.965 51.0288C497.965 50.6734 498.033 50.3809 498.17 50.1512C498.307 49.9216 498.491 49.7398 498.724 49.6058C498.956 49.4719 499.216 49.3707 499.503 49.3024C499.79 49.234 500.083 49.1821 500.381 49.1465C500.758 49.1028 501.064 49.0672 501.299 49.0399C501.534 49.0098 501.705 48.962 501.812 48.8964C501.918 48.8308 501.972 48.7241 501.972 48.5765V48.5478C501.972 48.1897 501.871 47.9122 501.668 47.7153C501.469 47.5185 501.171 47.4201 500.774 47.4201C500.361 47.4201 500.036 47.5117 499.798 47.6948C499.563 47.8753 499.4 48.0762 499.31 48.2977L498.158 48.0352C498.295 47.6525 498.494 47.3435 498.757 47.1084C499.022 46.8706 499.327 46.6983 499.671 46.5917C500.016 46.4823 500.378 46.4277 500.758 46.4277C501.009 46.4277 501.276 46.4577 501.558 46.5179C501.842 46.5753 502.107 46.6819 502.353 46.8377C502.602 46.9936 502.806 47.2164 502.964 47.5062C503.123 47.7932 503.202 48.1664 503.202 48.6257V52.8086H502.004V51.9474H501.955C501.876 52.106 501.757 52.2618 501.599 52.4149C501.44 52.568 501.236 52.6951 500.987 52.7963C500.739 52.8974 500.441 52.948 500.093 52.948ZM500.36 51.9638C500.699 51.9638 500.989 51.8968 501.229 51.7629C501.473 51.6289 501.657 51.4539 501.783 51.238C501.912 51.0193 501.976 50.7855 501.976 50.5367V49.7248C501.932 49.7685 501.847 49.8095 501.722 49.8478C501.599 49.8833 501.458 49.9148 501.299 49.9421C501.141 49.9667 500.986 49.9899 500.836 50.0118C500.685 50.0309 500.56 50.0474 500.458 50.061C500.221 50.0911 500.003 50.1417 499.806 50.2128C499.612 50.2838 499.456 50.3864 499.339 50.5203C499.224 50.6515 499.167 50.8265 499.167 51.0452C499.167 51.3487 499.279 51.5783 499.503 51.7342C499.727 51.8873 500.013 51.9638 500.36 51.9638ZM506.061 44.41V52.8086H504.835V44.41H506.061ZM512.431 48.0475L511.32 48.2443C511.273 48.1022 511.199 47.9669 511.098 47.8384C511 47.7099 510.866 47.6046 510.696 47.5226C510.527 47.4406 510.315 47.3996 510.061 47.3996C509.713 47.3996 509.424 47.4775 509.191 47.6333C508.959 47.7864 508.843 47.9846 508.843 48.2279C508.843 48.4384 508.921 48.608 509.076 48.7364C509.232 48.8649 509.484 48.9702 509.831 49.0522L510.832 49.2819C511.411 49.4158 511.843 49.6222 512.127 49.9011C512.412 50.1799 512.554 50.5422 512.554 50.9878C512.554 51.3651 512.445 51.7014 512.226 51.9966C512.01 52.2892 511.708 52.5188 511.32 52.6856C510.934 52.8523 510.487 52.9357 509.979 52.9357C509.273 52.9357 508.698 52.7854 508.252 52.4846C507.807 52.1812 507.533 51.7506 507.432 51.1929L508.617 51.0124C508.691 51.3214 508.843 51.5551 509.072 51.7137C509.302 51.8695 509.601 51.9474 509.97 51.9474C510.372 51.9474 510.694 51.864 510.934 51.6973C511.175 51.5278 511.295 51.3214 511.295 51.078C511.295 50.8812 511.221 50.7158 511.074 50.5818C510.929 50.4479 510.706 50.3467 510.405 50.2784L509.339 50.0446C508.751 49.9107 508.316 49.6974 508.035 49.4049C507.756 49.1124 507.617 48.7419 507.617 48.2936C507.617 47.9217 507.72 47.5964 507.928 47.3175C508.136 47.0387 508.423 46.8213 508.789 46.6655C509.156 46.5069 509.575 46.4277 510.048 46.4277C510.729 46.4277 511.265 46.5753 511.656 46.8706C512.047 47.1631 512.305 47.5554 512.431 48.0475Z" fill="#FFCF4A"/>
<rect x="528.127" y="40.659" width="50.9611" height="16.3001" rx="8.15006" stroke="#A1FF4F" stroke-width="0.360875"/>
<path d="M540.661 52.8086H537.942V44.41H540.747C541.57 44.41 542.276 44.5782 542.867 44.9144C543.457 45.248 543.91 45.7278 544.224 46.3538C544.541 46.9772 544.7 47.7249 544.7 48.597C544.7 49.4719 544.54 50.2237 544.22 50.8525C543.903 51.4813 543.444 51.9652 542.842 52.3042C542.241 52.6405 541.514 52.8086 540.661 52.8086ZM539.209 51.7014H540.591C541.231 51.7014 541.762 51.5811 542.186 51.3405C542.61 51.0972 542.927 50.7459 543.138 50.2866C543.348 49.8245 543.453 49.2614 543.453 48.597C543.453 47.9381 543.348 47.3791 543.138 46.9198C542.93 46.4605 542.619 46.1119 542.207 45.874C541.794 45.6362 541.281 45.5173 540.669 45.5173H539.209V51.7014ZM546.177 52.8086V46.5097H547.362V47.5103H547.428C547.543 47.1713 547.745 46.9047 548.035 46.7106C548.327 46.5138 548.658 46.4154 549.027 46.4154C549.104 46.4154 549.194 46.4181 549.298 46.4236C549.405 46.429 549.488 46.4359 549.548 46.4441V47.6169C549.499 47.6032 549.411 47.5882 549.286 47.5718C549.16 47.5527 549.034 47.5431 548.908 47.5431C548.619 47.5431 548.36 47.6046 548.133 47.7276C547.909 47.8479 547.732 48.0161 547.6 48.232C547.469 48.4453 547.403 48.6886 547.403 48.962V52.8086H546.177ZM553.037 52.9357C552.446 52.9357 551.931 52.8004 551.491 52.5297C551.051 52.2591 550.709 51.8804 550.466 51.3938C550.222 50.9072 550.101 50.3385 550.101 49.6878C550.101 49.0344 550.222 48.4631 550.466 47.9737C550.709 47.4843 551.051 47.1043 551.491 46.8336C551.931 46.563 552.446 46.4277 553.037 46.4277C553.628 46.4277 554.143 46.563 554.583 46.8336C555.023 47.1043 555.365 47.4843 555.608 47.9737C555.852 48.4631 555.973 49.0344 555.973 49.6878C555.973 50.3385 555.852 50.9072 555.608 51.3938C555.365 51.8804 555.023 52.2591 554.583 52.5297C554.143 52.8004 553.628 52.9357 553.037 52.9357ZM553.041 51.9064C553.424 51.9064 553.741 51.8053 553.992 51.6029C554.244 51.4006 554.43 51.1313 554.55 50.7951C554.673 50.4588 554.735 50.0884 554.735 49.6837C554.735 49.2819 554.673 48.9128 554.55 48.5765C554.43 48.2375 554.244 47.9655 553.992 47.7604C553.741 47.5554 553.424 47.4529 553.041 47.4529C552.656 47.4529 552.336 47.5554 552.081 47.7604C551.83 47.9655 551.643 48.2375 551.52 48.5765C551.399 48.9128 551.339 49.2819 551.339 49.6837C551.339 50.0884 551.399 50.4588 551.52 50.7951C551.643 51.1313 551.83 51.4006 552.081 51.6029C552.336 51.8053 552.656 51.9064 553.041 51.9064ZM558.568 49.0686V52.8086H557.342V46.5097H558.519V47.5349H558.597C558.742 47.2014 558.969 46.9334 559.277 46.7311C559.589 46.5288 559.981 46.4277 560.454 46.4277C560.884 46.4277 561.26 46.5179 561.582 46.6983C561.905 46.876 562.155 47.1412 562.333 47.4939C562.51 47.8466 562.599 48.2826 562.599 48.8021V52.8086H561.373V48.9497C561.373 48.4931 561.254 48.1364 561.016 47.8794C560.778 47.6196 560.452 47.4898 560.036 47.4898C559.752 47.4898 559.499 47.5513 559.277 47.6743C559.059 47.7973 558.885 47.9778 558.757 48.2156C558.631 48.4508 558.568 48.7351 558.568 49.0686ZM566.958 52.9357C566.338 52.9357 565.803 52.8031 565.355 52.5379C564.909 52.27 564.565 51.8941 564.322 51.4102C564.081 50.9236 563.961 50.3535 563.961 49.7001C563.961 49.0549 564.081 48.4863 564.322 47.9942C564.565 47.5021 564.904 47.118 565.339 46.8418C565.776 46.5657 566.287 46.4277 566.872 46.4277C567.228 46.4277 567.572 46.4864 567.906 46.604C568.239 46.7216 568.539 46.9061 568.804 47.1576C569.069 47.4091 569.278 47.7358 569.431 48.1377C569.584 48.5369 569.661 49.0221 569.661 49.5935V50.0282H564.654V49.1096H568.459C568.459 48.787 568.394 48.5013 568.262 48.2525C568.131 48.001 567.947 47.8028 567.709 47.6579C567.474 47.513 567.198 47.4406 566.88 47.4406C566.536 47.4406 566.235 47.5253 565.978 47.6948C565.724 47.8616 565.527 48.0803 565.388 48.351C565.251 48.6189 565.183 48.91 565.183 49.2244V49.9421C565.183 50.3631 565.257 50.7213 565.404 51.0165C565.555 51.3118 565.764 51.5373 566.032 51.6932C566.299 51.8463 566.613 51.9228 566.971 51.9228C567.203 51.9228 567.415 51.89 567.606 51.8244C567.798 51.756 567.963 51.6549 568.103 51.5209C568.242 51.387 568.349 51.2216 568.422 51.0247L569.583 51.2339C569.49 51.5756 569.323 51.875 569.083 52.132C568.845 52.3862 568.545 52.5844 568.185 52.7266C567.826 52.866 567.418 52.9357 566.958 52.9357Z" fill="#A1FF4F"/>
<rect x="585.223" y="40.659" width="53.9611" height="16.3001" rx="8.15006" stroke="#FF4A5C" stroke-width="0.360875"/>
<path d="M597.83 52.8086H595.111V44.41H597.916C598.739 44.41 599.446 44.5782 600.036 44.9144C600.627 45.248 601.079 45.7278 601.394 46.3538C601.711 46.9772 601.869 47.7249 601.869 48.597C601.869 49.4719 601.709 50.2237 601.39 50.8525C601.072 51.4813 600.613 51.9652 600.012 52.3042C599.41 52.6405 598.683 52.8086 597.83 52.8086ZM596.378 51.7014H597.76C598.4 51.7014 598.932 51.5811 599.355 51.3405C599.779 51.0972 600.096 50.7459 600.307 50.2866C600.517 49.8245 600.623 49.2614 600.623 48.597C600.623 47.9381 600.517 47.3791 600.307 46.9198C600.099 46.4605 599.789 46.1119 599.376 45.874C598.963 45.6362 598.451 45.5173 597.838 45.5173H596.378V51.7014ZM603.347 52.8086V46.5097H604.532V47.5103H604.597C604.712 47.1713 604.915 46.9047 605.204 46.7106C605.497 46.5138 605.828 46.4154 606.197 46.4154C606.273 46.4154 606.364 46.4181 606.467 46.4236C606.574 46.429 606.657 46.4359 606.718 46.4441V47.6169C606.668 47.6032 606.581 47.5882 606.455 47.5718C606.329 47.5527 606.204 47.5431 606.078 47.5431C605.788 47.5431 605.53 47.6046 605.303 47.7276C605.079 47.8479 604.901 48.0161 604.77 48.232C604.638 48.4453 604.573 48.6886 604.573 48.962V52.8086H603.347ZM611.769 50.1963V46.5097H612.999V52.8086H611.793V51.7178H611.728C611.583 52.054 611.35 52.3343 611.031 52.5584C610.713 52.7799 610.318 52.8906 609.845 52.8906C609.441 52.8906 609.083 52.8018 608.771 52.6241C608.462 52.4436 608.219 52.1771 608.041 51.8244C607.866 51.4717 607.779 51.0357 607.779 50.5162V46.5097H609.005V50.3686C609.005 50.7978 609.124 51.1395 609.362 51.3938C609.599 51.6481 609.908 51.7752 610.288 51.7752C610.518 51.7752 610.746 51.7178 610.973 51.6029C611.203 51.4881 611.393 51.3145 611.543 51.0821C611.696 50.8498 611.772 50.5545 611.769 50.1963ZM614.647 52.8086V46.5097H615.823V47.5349H615.901C616.033 47.1877 616.247 46.917 616.545 46.7229C616.843 46.5261 617.2 46.4277 617.616 46.4277C618.037 46.4277 618.389 46.5261 618.674 46.7229C618.961 46.9198 619.173 47.1904 619.309 47.5349H619.375C619.525 47.1986 619.764 46.9307 620.092 46.7311C620.421 46.5288 620.812 46.4277 621.265 46.4277C621.837 46.4277 622.303 46.6067 622.664 46.9649C623.027 47.323 623.209 47.863 623.209 48.5847V52.8086H621.983V48.6995C621.983 48.273 621.867 47.9641 621.634 47.7727C621.402 47.5814 621.125 47.4857 620.802 47.4857C620.403 47.4857 620.092 47.6087 619.871 47.8548C619.65 48.0981 619.539 48.4111 619.539 48.7939V52.8086H618.317V48.6216C618.317 48.2799 618.21 48.0051 617.997 47.7973C617.784 47.5896 617.506 47.4857 617.164 47.4857C616.932 47.4857 616.717 47.5472 616.521 47.6702C616.327 47.7905 616.169 47.9586 616.049 48.1746C615.931 48.3906 615.873 48.6408 615.873 48.9251V52.8086H614.647ZM629.573 48.0475L628.461 48.2443C628.415 48.1022 628.341 47.9669 628.24 47.8384C628.141 47.7099 628.007 47.6046 627.838 47.5226C627.668 47.4406 627.457 47.3996 627.202 47.3996C626.855 47.3996 626.565 47.4775 626.333 47.6333C626.101 47.7864 625.984 47.9846 625.984 48.2279C625.984 48.4384 626.062 48.608 626.218 48.7364C626.374 48.8649 626.625 48.9702 626.973 49.0522L627.973 49.2819C628.553 49.4158 628.985 49.6222 629.269 49.9011C629.554 50.1799 629.696 50.5422 629.696 50.9878C629.696 51.3651 629.586 51.7014 629.368 51.9966C629.152 52.2892 628.85 52.5188 628.461 52.6856C628.076 52.8523 627.629 52.9357 627.12 52.9357C626.415 52.9357 625.839 52.7854 625.394 52.4846C624.948 52.1812 624.675 51.7506 624.574 51.1929L625.759 51.0124C625.833 51.3214 625.984 51.5551 626.214 51.7137C626.444 51.8695 626.743 51.9474 627.112 51.9474C627.514 51.9474 627.835 51.864 628.076 51.6973C628.316 51.5278 628.437 51.3214 628.437 51.078C628.437 50.8812 628.363 50.7158 628.215 50.5818C628.07 50.4479 627.848 50.3467 627.547 50.2784L626.481 50.0446C625.893 49.9107 625.458 49.6974 625.177 49.4049C624.898 49.1124 624.758 48.7419 624.758 48.2936C624.758 47.9217 624.862 47.5964 625.07 47.3175C625.278 47.0387 625.565 46.8213 625.931 46.6655C626.297 46.5069 626.717 46.4277 627.19 46.4277C627.871 46.4277 628.407 46.5753 628.798 46.8706C629.189 47.1631 629.447 47.5554 629.573 48.0475Z" fill="#FF4A5C"/>
<rect x="645.319" y="40.659" width="44.9611" height="16.3001" rx="8.15006" stroke="white" stroke-opacity="0.3" stroke-width="0.360875"/>
<path d="M654.863 52.8086V44.41H657.856C658.507 44.41 659.047 44.5221 659.476 44.7463C659.908 44.9705 660.231 45.2808 660.444 45.6772C660.657 46.0709 660.764 46.5261 660.764 47.0428C660.764 47.5568 660.656 48.0092 660.44 48.4002C660.227 48.7884 659.904 49.0905 659.472 49.3065C659.043 49.5224 658.503 49.6304 657.852 49.6304H655.585V48.5396H657.737C658.148 48.5396 658.481 48.4808 658.738 48.3633C658.998 48.2457 659.188 48.0748 659.308 47.8507C659.428 47.6265 659.489 47.3572 659.489 47.0428C659.489 46.7257 659.427 46.4509 659.304 46.2185C659.184 45.9861 658.994 45.8084 658.734 45.6854C658.477 45.5596 658.139 45.4968 657.721 45.4968H656.13V52.8086H654.863ZM659.009 49.0194L661.084 52.8086H659.64L657.606 49.0194H659.009ZM662.207 52.8086V46.5097H663.434V52.8086H662.207ZM662.827 45.5378C662.613 45.5378 662.43 45.4667 662.277 45.3245C662.127 45.1796 662.052 45.0074 662.052 44.8078C662.052 44.6055 662.127 44.4333 662.277 44.2911C662.43 44.1462 662.613 44.0738 662.827 44.0738C663.04 44.0738 663.222 44.1462 663.372 44.2911C663.525 44.4333 663.602 44.6055 663.602 44.8078C663.602 45.0074 663.525 45.1796 663.372 45.3245C663.222 45.4667 663.04 45.5378 662.827 45.5378ZM669.803 48.0475L668.692 48.2443C668.645 48.1022 668.572 47.9669 668.47 47.8384C668.372 47.7099 668.238 47.6046 668.069 47.5226C667.899 47.4406 667.687 47.3996 667.433 47.3996C667.086 47.3996 666.796 47.4775 666.564 47.6333C666.331 47.7864 666.215 47.9846 666.215 48.2279C666.215 48.4384 666.293 48.608 666.449 48.7364C666.605 48.8649 666.856 48.9702 667.203 49.0522L668.204 49.2819C668.783 49.4158 669.215 49.6222 669.5 49.9011C669.784 50.1799 669.926 50.5422 669.926 50.9878C669.926 51.3651 669.817 51.7014 669.598 51.9966C669.382 52.2892 669.08 52.5188 668.692 52.6856C668.306 52.8523 667.859 52.9357 667.351 52.9357C666.646 52.9357 666.07 52.7854 665.624 52.4846C665.179 52.1812 664.905 51.7506 664.804 51.1929L665.989 51.0124C666.063 51.3214 666.215 51.5551 666.445 51.7137C666.674 51.8695 666.974 51.9474 667.343 51.9474C667.745 51.9474 668.066 51.864 668.306 51.6973C668.547 51.5278 668.667 51.3214 668.667 51.078C668.667 50.8812 668.593 50.7158 668.446 50.5818C668.301 50.4479 668.078 50.3467 667.777 50.2784L666.711 50.0446C666.123 49.9107 665.689 49.6974 665.407 49.4049C665.128 49.1124 664.989 48.7419 664.989 48.2936C664.989 47.9217 665.093 47.5964 665.3 47.3175C665.508 47.0387 665.795 46.8213 666.162 46.6655C666.528 46.5069 666.948 46.4277 667.421 46.4277C668.101 46.4277 668.637 46.5753 669.028 46.8706C669.419 47.1631 669.677 47.5554 669.803 48.0475ZM673.989 52.9357C673.369 52.9357 672.834 52.8031 672.386 52.5379C671.94 52.27 671.596 51.8941 671.352 51.4102C671.112 50.9236 670.991 50.3535 670.991 49.7001C670.991 49.0549 671.112 48.4863 671.352 47.9942C671.596 47.5021 671.935 47.118 672.369 46.8418C672.807 46.5657 673.318 46.4277 673.903 46.4277C674.258 46.4277 674.603 46.4864 674.936 46.604C675.27 46.7216 675.569 46.9061 675.835 47.1576C676.1 47.4091 676.309 47.7358 676.462 48.1377C676.615 48.5369 676.692 49.0221 676.692 49.5935V50.0282H671.684V49.1096H675.49C675.49 48.787 675.424 48.5013 675.293 48.2525C675.162 48.001 674.977 47.8028 674.74 47.6579C674.504 47.513 674.228 47.4406 673.911 47.4406C673.567 47.4406 673.266 47.5253 673.009 47.6948C672.755 47.8616 672.558 48.0803 672.419 48.351C672.282 48.6189 672.213 48.91 672.213 49.2244V49.9421C672.213 50.3631 672.287 50.7213 672.435 51.0165C672.585 51.3118 672.794 51.5373 673.062 51.6932C673.33 51.8463 673.643 51.9228 674.001 51.9228C674.234 51.9228 674.446 51.89 674.637 51.8244C674.828 51.756 674.994 51.6549 675.133 51.5209C675.273 51.387 675.379 51.2216 675.453 51.0247L676.614 51.2339C676.521 51.5756 676.354 51.875 676.113 52.132C675.876 52.3862 675.576 52.5844 675.215 52.7266C674.857 52.866 674.448 52.9357 673.989 52.9357ZM678.052 52.8086V46.5097H679.237V47.5103H679.303C679.418 47.1713 679.62 46.9047 679.91 46.7106C680.202 46.5138 680.533 46.4154 680.902 46.4154C680.979 46.4154 681.069 46.4181 681.173 46.4236C681.279 46.429 681.363 46.4359 681.423 46.4441V47.6169C681.374 47.6032 681.286 47.5882 681.161 47.5718C681.035 47.5527 680.909 47.5431 680.783 47.5431C680.493 47.5431 680.235 47.6046 680.008 47.7276C679.784 47.8479 679.606 48.0161 679.475 48.232C679.344 48.4453 679.278 48.6886 679.278 48.962V52.8086H678.052Z" fill="white" fill-opacity="0.3"/>
<rect x="349.839" y="63.0935" width="27.9611" height="16.3001" rx="8.15006" stroke="white" stroke-opacity="0.3" stroke-width="0.360875"/>
<path d="M362.33 68.9443V69.9285H358.771V68.9443H362.33ZM359.747 75.2432V68.2143C359.747 67.8206 359.833 67.4939 360.005 67.2342C360.177 66.9717 360.406 66.7763 360.69 66.6478C360.974 66.5165 361.283 66.4509 361.617 66.4509C361.863 66.4509 362.073 66.4714 362.248 66.5124C362.423 66.5507 362.553 66.5863 362.638 66.6191L362.351 67.6115C362.293 67.5951 362.22 67.5759 362.129 67.5541C362.039 67.5295 361.93 67.5172 361.801 67.5172C361.503 67.5172 361.29 67.591 361.162 67.7386C361.036 67.8862 360.973 68.0995 360.973 68.3783V75.2432H359.747ZM364.563 68.9443L365.953 71.3966L367.356 68.9443H368.697L366.733 72.0937L368.713 75.2432H367.372L365.953 72.8893L364.539 75.2432H363.194L365.154 72.0937L363.218 68.9443H364.563Z" fill="white" fill-opacity="0.3"/>
<rect x="383.935" y="63.0935" width="48.9611" height="16.3001" rx="8.15006" stroke="white" stroke-opacity="0.3" stroke-width="0.360875"/>
<path d="M397.973 69.0509C397.929 68.6627 397.749 68.3619 397.432 68.1487C397.115 67.9327 396.716 67.8247 396.234 67.8247C395.89 67.8247 395.592 67.8794 395.34 67.9888C395.089 68.0954 394.893 68.243 394.754 68.4316C394.617 68.6175 394.549 68.8294 394.549 69.0673C394.549 69.2669 394.595 69.4391 394.688 69.584C394.784 69.7289 394.908 69.8505 395.062 69.949C395.217 70.0446 395.384 70.1253 395.562 70.1909C395.74 70.2538 395.91 70.3057 396.074 70.3467L396.895 70.56C397.163 70.6256 397.437 70.7145 397.719 70.8265C398.001 70.9386 398.262 71.0863 398.502 71.2694C398.743 71.4526 398.937 71.6795 399.085 71.9502C399.235 72.2208 399.31 72.5448 399.31 72.9221C399.31 73.3978 399.187 73.8202 398.941 74.1892C398.698 74.5583 398.344 74.8495 397.879 75.0627C397.417 75.276 396.858 75.3826 396.202 75.3826C395.573 75.3826 395.029 75.2828 394.569 75.0832C394.11 74.8837 393.751 74.6007 393.491 74.2344C393.231 73.8653 393.088 73.4279 393.06 72.9221H394.332C394.356 73.2255 394.455 73.4784 394.627 73.6807C394.802 73.8803 395.025 74.0293 395.295 74.1277C395.569 74.2234 395.868 74.2713 396.193 74.2713C396.552 74.2713 396.87 74.2152 397.149 74.1031C397.431 73.9883 397.652 73.8297 397.813 73.6274C397.975 73.4224 398.055 73.1832 398.055 72.9098C398.055 72.661 397.984 72.4573 397.842 72.2988C397.703 72.1402 397.513 72.009 397.272 71.9051C397.034 71.8012 396.765 71.7096 396.464 71.6303L395.472 71.3597C394.799 71.1765 394.266 70.9072 393.872 70.5518C393.481 70.1964 393.286 69.7261 393.286 69.1411C393.286 68.6572 393.417 68.2348 393.68 67.8739C393.942 67.5131 394.297 67.2328 394.746 67.0333C395.194 66.8309 395.7 66.7298 396.263 66.7298C396.832 66.7298 397.333 66.8296 397.768 67.0292C398.206 67.2287 398.55 67.5035 398.802 67.8534C399.053 68.2006 399.184 68.5998 399.195 69.0509H397.973ZM401.952 71.5032V75.2432H400.726V68.9443H401.903V69.9695H401.981C402.126 69.6359 402.353 69.368 402.661 69.1657C402.973 68.9634 403.365 68.8622 403.838 68.8622C404.268 68.8622 404.644 68.9525 404.966 69.1329C405.289 69.3106 405.539 69.5758 405.717 69.9285C405.894 70.2811 405.983 70.7172 405.983 71.2366V75.2432H404.757V71.3843C404.757 70.9277 404.638 70.5709 404.4 70.3139C404.162 70.0542 403.836 69.9244 403.42 69.9244C403.136 69.9244 402.883 69.9859 402.661 70.1089C402.443 70.2319 402.269 70.4124 402.141 70.6502C402.015 70.8853 401.952 71.1696 401.952 71.5032ZM409.461 75.3826C409.062 75.3826 408.701 75.3088 408.378 75.1611C408.055 75.0108 407.8 74.7934 407.611 74.5091C407.425 74.2248 407.332 73.8762 407.332 73.4634C407.332 73.108 407.401 72.8155 407.537 72.5858C407.674 72.3562 407.859 72.1744 408.091 72.0404C408.323 71.9064 408.583 71.8053 408.87 71.7369C409.157 71.6686 409.45 71.6166 409.748 71.5811C410.125 71.5374 410.431 71.5018 410.666 71.4745C410.901 71.4444 411.072 71.3966 411.179 71.3309C411.286 71.2653 411.339 71.1587 411.339 71.0111V70.9824C411.339 70.6242 411.238 70.3467 411.035 70.1499C410.836 69.9531 410.538 69.8546 410.141 69.8546C409.729 69.8546 409.403 69.9462 409.165 70.1294C408.93 70.3098 408.768 70.5108 408.677 70.7322L407.525 70.4698C407.662 70.087 407.861 69.7781 408.124 69.543C408.389 69.3051 408.694 69.1329 409.038 69.0263C409.383 68.9169 409.745 68.8622 410.125 68.8622C410.377 68.8622 410.643 68.8923 410.925 68.9525C411.209 69.0099 411.474 69.1165 411.72 69.2723C411.969 69.4282 412.173 69.651 412.331 69.9408C412.49 70.2278 412.569 70.601 412.569 71.0603V75.2432H411.372V74.382H411.322C411.243 74.5406 411.124 74.6964 410.966 74.8495C410.807 75.0026 410.603 75.1297 410.355 75.2309C410.106 75.332 409.808 75.3826 409.461 75.3826ZM409.727 74.3984C410.066 74.3984 410.356 74.3314 410.597 74.1974C410.84 74.0635 411.025 73.8885 411.15 73.6725C411.279 73.4538 411.343 73.2201 411.343 72.9713V72.1593C411.299 72.2031 411.215 72.2441 411.089 72.2823C410.966 72.3179 410.825 72.3493 410.666 72.3767C410.508 72.4013 410.353 72.4245 410.203 72.4464C410.053 72.4655 409.927 72.4819 409.826 72.4956C409.588 72.5257 409.37 72.5762 409.174 72.6473C408.98 72.7184 408.824 72.8209 408.706 72.9549C408.591 73.0861 408.534 73.2611 408.534 73.4798C408.534 73.7833 408.646 74.0129 408.87 74.1687C409.094 74.3218 409.38 74.3984 409.727 74.3984ZM414.202 75.2432V68.9443H415.387V69.9449H415.453C415.568 69.6059 415.77 69.3393 416.06 69.1452C416.353 68.9484 416.683 68.8499 417.052 68.8499C417.129 68.8499 417.219 68.8527 417.323 68.8581C417.43 68.8636 417.513 68.8704 417.573 68.8786V70.0515C417.524 70.0378 417.437 70.0228 417.311 70.0064C417.185 69.9872 417.059 69.9777 416.933 69.9777C416.644 69.9777 416.385 70.0392 416.158 70.1622C415.934 70.2825 415.757 70.4506 415.625 70.6666C415.494 70.8799 415.428 71.1232 415.428 71.3966V75.2432H414.202ZM421.124 75.3703C420.503 75.3703 419.968 75.2377 419.52 74.9725C419.074 74.7046 418.73 74.3287 418.487 73.8448C418.246 73.3581 418.126 72.7881 418.126 72.1347C418.126 71.4895 418.246 70.9209 418.487 70.4288C418.73 69.9367 419.069 69.5525 419.504 69.2764C419.941 69.0003 420.452 68.8622 421.037 68.8622C421.393 68.8622 421.737 68.921 422.071 69.0386C422.404 69.1561 422.704 69.3407 422.969 69.5922C423.234 69.8437 423.443 70.1704 423.596 70.5723C423.749 70.9714 423.826 71.4567 423.826 72.0281V72.4628H418.819V71.5442H422.624C422.624 71.2216 422.559 70.9359 422.428 70.6871C422.296 70.4356 422.112 70.2374 421.874 70.0925C421.639 69.9476 421.363 69.8751 421.046 69.8751C420.701 69.8751 420.4 69.9599 420.143 70.1294C419.889 70.2962 419.692 70.5149 419.553 70.7855C419.416 71.0535 419.348 71.3446 419.348 71.659V72.3767C419.348 72.7977 419.422 73.1558 419.569 73.4511C419.72 73.7464 419.929 73.9719 420.197 74.1277C420.465 74.2808 420.778 74.3574 421.136 74.3574C421.368 74.3574 421.58 74.3246 421.771 74.259C421.963 74.1906 422.128 74.0895 422.268 73.9555C422.407 73.8215 422.514 73.6561 422.588 73.4593L423.748 73.6684C423.655 74.0102 423.488 74.3095 423.248 74.5665C423.01 74.8208 422.711 75.019 422.35 75.1611C421.992 75.3006 421.583 75.3703 421.124 75.3703Z" fill="white" fill-opacity="0.3"/>
<rect x="712.537" y="40.4785" width="116.966" height="38.2528" rx="4.3305" fill="#5A31E2"/>
<path d="M731.663 63.9359V54.9781C731.663 54.3594 731.663 54.0501 731.794 53.8638C731.907 53.7011 732.083 53.5925 732.28 53.5635C732.504 53.5302 732.781 53.6686 733.334 53.9453L735.994 55.2749M731.663 63.9359C731.663 65.1317 730.694 66.1011 729.498 66.1011C728.302 66.1011 727.333 65.1317 727.333 63.9359C727.333 62.7401 728.302 61.7706 729.498 61.7706C730.694 61.7706 731.663 62.7401 731.663 63.9359ZM725.889 58.1619V53.8314M723.724 55.9966H728.055" stroke="white" stroke-width="1.4435" stroke-linecap="round" stroke-linejoin="round"/>
<path d="M754.956 57.8305H753.939C753.879 57.538 753.774 57.281 753.623 57.0595C753.476 56.8381 753.295 56.6522 753.082 56.5018C752.872 56.3487 752.638 56.2339 752.381 56.1573C752.124 56.0808 751.856 56.0425 751.577 56.0425C751.069 56.0425 750.608 56.171 750.195 56.428C749.785 56.685 749.458 57.0636 749.215 57.5639C748.974 58.0642 748.854 58.678 748.854 59.4052C748.854 60.1324 748.974 60.7462 749.215 61.2465C749.458 61.7468 749.785 62.1255 750.195 62.3824C750.608 62.6394 751.069 62.7679 751.577 62.7679C751.856 62.7679 752.124 62.7296 752.381 62.6531C752.638 62.5765 752.872 62.4631 753.082 62.3127C753.295 62.1596 753.476 61.9724 753.623 61.7509C753.774 61.5267 753.879 61.2697 753.939 60.9799H754.956C754.88 61.4092 754.74 61.7933 754.538 62.1323C754.336 62.4713 754.084 62.7597 753.783 62.9976C753.483 63.2327 753.145 63.4118 752.77 63.5348C752.399 63.6578 752.001 63.7193 751.577 63.7193C750.861 63.7193 750.224 63.5443 749.666 63.1944C749.108 62.8445 748.67 62.3469 748.35 61.7017C748.03 61.0565 747.87 60.291 747.87 59.4052C747.87 58.5194 748.03 57.7539 748.35 57.1087C748.67 56.4635 749.108 55.966 749.666 55.616C750.224 55.2661 750.861 55.0911 751.577 55.0911C752.001 55.0911 752.399 55.1526 752.77 55.2757C753.145 55.3987 753.483 55.5791 753.783 55.817C754.084 56.0521 754.336 56.3391 754.538 56.6781C754.74 57.0144 754.88 57.3985 754.956 57.8305ZM756.468 63.6045V57.3056H757.403V58.257H757.469C757.584 57.9453 757.792 57.6924 758.092 57.4983C758.393 57.3042 758.732 57.2072 759.109 57.2072C759.18 57.2072 759.269 57.2085 759.376 57.2113C759.482 57.214 759.563 57.2181 759.618 57.2236V58.2078C759.585 58.1996 759.51 58.1873 759.392 58.1709C759.277 58.1517 759.156 58.1422 759.027 58.1422C758.721 58.1422 758.448 58.2064 758.207 58.3349C757.969 58.4607 757.781 58.6356 757.641 58.8598C757.504 59.0812 757.436 59.3341 757.436 59.6185V63.6045H756.468ZM763.214 63.7357C762.607 63.7357 762.084 63.6018 761.644 63.3338C761.206 63.0632 760.869 62.6859 760.631 62.202C760.396 61.7154 760.278 61.1494 760.278 60.5042C760.278 59.859 760.396 59.2904 760.631 58.7983C760.869 58.3035 761.199 57.918 761.623 57.6418C762.05 57.363 762.547 57.2236 763.116 57.2236C763.444 57.2236 763.768 57.2782 764.088 57.3876C764.408 57.497 764.699 57.6747 764.961 57.9207C765.224 58.164 765.433 58.4866 765.589 58.8885C765.744 59.2904 765.822 59.7852 765.822 60.373V60.7831H760.967V59.9465H764.838C764.838 59.5911 764.767 59.274 764.625 58.9951C764.485 58.7163 764.286 58.4962 764.026 58.3349C763.769 58.1736 763.466 58.0929 763.116 58.0929C762.73 58.0929 762.397 58.1886 762.115 58.38C761.836 58.5686 761.622 58.8147 761.471 59.1182C761.321 59.4216 761.246 59.747 761.246 60.0942V60.6519C761.246 61.1276 761.328 61.5308 761.492 61.8616C761.659 62.1897 761.89 62.4398 762.185 62.6121C762.48 62.7816 762.823 62.8663 763.214 62.8663C763.468 62.8663 763.698 62.8308 763.903 62.7597C764.111 62.6859 764.29 62.5765 764.44 62.4316C764.591 62.284 764.707 62.1008 764.789 61.8821L765.724 62.1446C765.626 62.4617 765.46 62.7406 765.228 62.9812C764.995 63.219 764.708 63.4049 764.367 63.5389C764.025 63.6701 763.641 63.7357 763.214 63.7357ZM769.148 63.7521C768.749 63.7521 768.387 63.6769 768.061 63.5266C767.736 63.3735 767.478 63.1534 767.286 62.8663C767.095 62.5765 766.999 62.2266 766.999 61.8165C766.999 61.4556 767.07 61.1631 767.213 60.9389C767.355 60.712 767.545 60.5343 767.783 60.4058C768.02 60.2773 768.283 60.1816 768.57 60.1188C768.86 60.0532 769.151 60.0012 769.443 59.9629C769.826 59.9137 770.136 59.8768 770.374 59.8522C770.615 59.8249 770.79 59.7798 770.899 59.7169C771.011 59.654 771.067 59.5446 771.067 59.3888V59.356C771.067 58.9514 770.957 58.637 770.735 58.4128C770.516 58.1886 770.184 58.0765 769.739 58.0765C769.277 58.0765 768.914 58.1777 768.652 58.38C768.39 58.5823 768.205 58.7983 768.098 59.0279L767.18 58.6999C767.344 58.3171 767.562 58.0191 767.836 57.8059C768.112 57.5899 768.413 57.4395 768.738 57.3548C769.066 57.2673 769.389 57.2236 769.706 57.2236C769.908 57.2236 770.141 57.2482 770.403 57.2974C770.668 57.3439 770.924 57.4409 771.17 57.5885C771.419 57.7362 771.625 57.959 771.789 58.257C771.953 58.555 772.035 58.9541 772.035 59.4544V63.6045H771.067V62.7515H771.018C770.953 62.8882 770.843 63.0345 770.69 63.1903C770.537 63.3461 770.333 63.4787 770.079 63.5881C769.825 63.6974 769.515 63.7521 769.148 63.7521ZM769.296 62.8827C769.679 62.8827 770.001 62.8076 770.264 62.6572C770.529 62.5068 770.728 62.3127 770.862 62.0749C770.999 61.837 771.067 61.5869 771.067 61.3244V60.4386C771.026 60.4878 770.936 60.533 770.797 60.574C770.66 60.6122 770.501 60.6464 770.321 60.6765C770.143 60.7038 769.97 60.7284 769.8 60.7503C769.633 60.7694 769.498 60.7858 769.394 60.7995C769.143 60.8323 768.908 60.8856 768.689 60.9594C768.473 61.0305 768.298 61.1385 768.164 61.2834C768.033 61.4256 767.967 61.6197 767.967 61.8657C767.967 62.202 768.092 62.4563 768.34 62.6285C768.592 62.798 768.91 62.8827 769.296 62.8827ZM776.541 57.3056V58.1257H773.277V57.3056H776.541ZM774.228 55.7965H775.196V61.8001C775.196 62.0735 775.236 62.2785 775.315 62.4152C775.397 62.5492 775.501 62.6394 775.626 62.6859C775.755 62.7296 775.89 62.7515 776.032 62.7515C776.139 62.7515 776.227 62.746 776.295 62.7351C776.363 62.7214 776.418 62.7105 776.459 62.7023L776.656 63.5717C776.59 63.5963 776.499 63.6209 776.381 63.6455C776.263 63.6728 776.114 63.6865 775.934 63.6865C775.661 63.6865 775.393 63.6277 775.13 63.5102C774.871 63.3926 774.655 63.2135 774.482 62.973C774.313 62.7324 774.228 62.4289 774.228 62.0626V55.7965ZM780.57 63.7357C779.963 63.7357 779.44 63.6018 778.999 63.3338C778.562 63.0632 778.224 62.6859 777.987 62.202C777.751 61.7154 777.634 61.1494 777.634 60.5042C777.634 59.859 777.751 59.2904 777.987 58.7983C778.224 58.3035 778.555 57.918 778.979 57.6418C779.405 57.363 779.903 57.2236 780.472 57.2236C780.8 57.2236 781.124 57.2782 781.444 57.3876C781.763 57.497 782.055 57.6747 782.317 57.9207C782.579 58.164 782.789 58.4866 782.944 58.8885C783.1 59.2904 783.178 59.7852 783.178 60.373V60.7831H778.323V59.9465H782.194C782.194 59.5911 782.123 59.274 781.981 58.9951C781.841 58.7163 781.642 58.4962 781.382 58.3349C781.125 58.1736 780.822 58.0929 780.472 58.0929C780.086 58.0929 779.753 58.1886 779.471 58.38C779.192 58.5686 778.978 58.8147 778.827 59.1182C778.677 59.4216 778.602 59.747 778.602 60.0942V60.6519C778.602 61.1276 778.684 61.5308 778.848 61.8616C779.014 62.1897 779.245 62.4398 779.541 62.6121C779.836 62.7816 780.179 62.8663 780.57 62.8663C780.824 62.8663 781.054 62.8308 781.259 62.7597C781.467 62.6859 781.646 62.5765 781.796 62.4316C781.947 62.284 782.063 62.1008 782.145 61.8821L783.08 62.1446C782.981 62.4617 782.816 62.7406 782.584 62.9812C782.351 63.219 782.064 63.4049 781.722 63.5389C781.381 63.6701 780.997 63.7357 780.57 63.7357ZM794.689 55.2059V63.6045H793.705L789.129 57.0103H789.047V63.6045H788.03V55.2059H789.014L793.607 61.8165H793.689V55.2059H794.689ZM799.234 63.7357C798.627 63.7357 798.104 63.6018 797.663 63.3338C797.226 63.0632 796.888 62.6859 796.651 62.202C796.415 61.7154 796.298 61.1494 796.298 60.5042C796.298 59.859 796.415 59.2904 796.651 58.7983C796.888 58.3035 797.219 57.918 797.643 57.6418C798.069 57.363 798.567 57.2236 799.136 57.2236C799.464 57.2236 799.788 57.2782 800.108 57.3876C800.427 57.497 800.719 57.6747 800.981 57.9207C801.244 58.164 801.453 58.4866 801.608 58.8885C801.764 59.2904 801.842 59.7852 801.842 60.373V60.7831H796.987V59.9465H800.858C800.858 59.5911 800.787 59.274 800.645 58.9951C800.505 58.7163 800.306 58.4962 800.046 58.3349C799.789 58.1736 799.486 58.0929 799.136 58.0929C798.75 58.0929 798.417 58.1886 798.135 58.38C797.856 58.5686 797.642 58.8147 797.491 59.1182C797.341 59.4216 797.266 59.747 797.266 60.0942V60.6519C797.266 61.1276 797.348 61.5308 797.512 61.8616C797.678 62.1897 797.91 62.4398 798.205 62.6121C798.5 62.7816 798.843 62.8663 799.234 62.8663C799.488 62.8663 799.718 62.8308 799.923 62.7597C800.131 62.6859 800.31 62.5765 800.46 62.4316C800.611 62.284 800.727 62.1008 800.809 61.8821L801.744 62.1446C801.645 62.4617 801.48 62.7406 801.248 62.9812C801.015 63.219 800.728 63.4049 800.386 63.5389C800.045 63.6701 799.661 63.7357 799.234 63.7357ZM804.742 63.6045L802.822 57.3056H803.839L805.201 62.1282H805.266L806.612 57.3056H807.645L808.974 62.1118H809.039L810.401 57.3056H811.418L809.499 63.6045H808.547L807.169 58.7655H807.071L805.693 63.6045H804.742Z" fill="white" fill-opacity="0.8"/>
<rect x="836.72" y="40.4785" width="92.966" height="38.2528" rx="4.3305" fill="#211C32"/>
<path d="M855.847 63.9359V54.9781C855.847 54.3594 855.847 54.0501 855.977 53.8638C856.091 53.7011 856.267 53.5925 856.463 53.5635C856.688 53.5302 856.965 53.6686 857.518 53.9453L860.177 55.2749M855.847 63.9359C855.847 65.1317 854.877 66.1011 853.682 66.1011C852.486 66.1011 851.516 65.1317 851.516 63.9359C851.516 62.7401 852.486 61.7706 853.682 61.7706C854.877 61.7706 855.847 62.7401 855.847 63.9359ZM850.073 58.1619V53.8314M847.908 55.9966H852.238" stroke="white" stroke-opacity="0.6" stroke-width="1.4435" stroke-linecap="round" stroke-linejoin="round"/>
<path d="M872.382 63.6045V55.2059H877.45V56.1081H873.399V58.9459H877.188V59.8481H873.399V62.7023H877.516V63.6045H872.382ZM879.874 57.3056L881.383 59.8809L882.892 57.3056H884.007L881.973 60.455L884.007 63.6045H882.892L881.383 61.1604L879.874 63.6045H878.758L880.76 60.455L878.758 57.3056H879.874ZM885.388 65.9666V57.3056H886.323V58.3062H886.438C886.509 58.1968 886.608 58.0574 886.733 57.8879C886.862 57.7157 887.045 57.5626 887.283 57.4286C887.524 57.2919 887.849 57.2236 888.259 57.2236C888.789 57.2236 889.257 57.3562 889.661 57.6213C890.066 57.8865 890.382 58.2624 890.609 58.7491C890.836 59.2357 890.949 59.8098 890.949 60.4714C890.949 61.1385 890.836 61.7167 890.609 62.2061C890.382 62.6927 890.067 63.07 889.666 63.3379C889.264 63.6031 888.8 63.7357 888.275 63.7357C887.871 63.7357 887.547 63.6687 887.303 63.5348C887.06 63.3981 886.873 63.2436 886.742 63.0714C886.61 62.8964 886.509 62.7515 886.438 62.6367H886.356V65.9666H885.388ZM886.34 60.455C886.34 60.9307 886.41 61.3504 886.549 61.714C886.688 62.0749 886.892 62.3578 887.16 62.5629C887.428 62.7652 887.756 62.8663 888.144 62.8663C888.549 62.8663 888.886 62.7597 889.157 62.5465C889.43 62.3305 889.636 62.0407 889.772 61.6771C889.912 61.3107 889.981 60.9034 889.981 60.455C889.981 60.0121 889.913 59.613 889.776 59.2576C889.642 58.8994 889.439 58.6165 889.165 58.4087C888.895 58.1982 888.554 58.0929 888.144 58.0929C887.75 58.0929 887.42 58.1927 887.152 58.3923C886.884 58.5891 886.682 58.8653 886.545 59.2207C886.408 59.5734 886.34 59.9848 886.34 60.455ZM894.279 63.7521C893.88 63.7521 893.518 63.6769 893.192 63.5266C892.867 63.3735 892.609 63.1534 892.417 62.8663C892.226 62.5765 892.13 62.2266 892.13 61.8165C892.13 61.4556 892.201 61.1631 892.343 60.9389C892.486 60.712 892.676 60.5343 892.913 60.4058C893.151 60.2773 893.414 60.1816 893.701 60.1188C893.991 60.0532 894.282 60.0012 894.574 59.9629C894.957 59.9137 895.267 59.8768 895.505 59.8522C895.746 59.8249 895.921 59.7798 896.03 59.7169C896.142 59.654 896.198 59.5446 896.198 59.3888V59.356C896.198 58.9514 896.088 58.637 895.866 58.4128C895.647 58.1886 895.315 58.0765 894.87 58.0765C894.408 58.0765 894.045 58.1777 893.783 58.38C893.52 58.5823 893.336 58.7983 893.229 59.0279L892.311 58.6999C892.475 58.3171 892.693 58.0191 892.967 57.8059C893.243 57.5899 893.544 57.4395 893.869 57.3548C894.197 57.2673 894.52 57.2236 894.837 57.2236C895.039 57.2236 895.271 57.2482 895.534 57.2974C895.799 57.3439 896.055 57.4409 896.301 57.5885C896.55 57.7362 896.756 57.959 896.92 58.257C897.084 58.555 897.166 58.9541 897.166 59.4544V63.6045H896.198V62.7515H896.149C896.083 62.8882 895.974 63.0345 895.821 63.1903C895.668 63.3461 895.464 63.4787 895.21 63.5881C894.956 63.6974 894.645 63.7521 894.279 63.7521ZM894.427 62.8827C894.809 62.8827 895.132 62.8076 895.394 62.6572C895.66 62.5068 895.859 62.3127 895.993 62.0749C896.13 61.837 896.198 61.5869 896.198 61.3244V60.4386C896.157 60.4878 896.067 60.533 895.928 60.574C895.791 60.6122 895.632 60.6464 895.452 60.6765C895.274 60.7038 895.101 60.7284 894.931 60.7503C894.764 60.7694 894.629 60.7858 894.525 60.7995C894.274 60.8323 894.038 60.8856 893.82 60.9594C893.604 61.0305 893.429 61.1385 893.295 61.2834C893.164 61.4256 893.098 61.6197 893.098 61.8657C893.098 62.202 893.222 62.4563 893.471 62.6285C893.723 62.798 894.041 62.8827 894.427 62.8827ZM899.9 59.8153V63.6045H898.932V57.3056H899.867V58.2898H899.95C900.097 57.9699 900.321 57.7129 900.622 57.5188C900.923 57.322 901.311 57.2236 901.787 57.2236C902.213 57.2236 902.586 57.311 902.906 57.486C903.226 57.6583 903.475 57.9207 903.653 58.2734C903.83 58.6233 903.919 59.0662 903.919 59.6021V63.6045H902.951V59.6677C902.951 59.1728 902.823 58.7874 902.566 58.5112C902.309 58.2324 901.956 58.0929 901.508 58.0929C901.199 58.0929 900.923 58.1599 900.679 58.2939C900.439 58.4278 900.249 58.6233 900.109 58.8803C899.97 59.1373 899.9 59.449 899.9 59.8153ZM908.066 63.7357C907.541 63.7357 907.078 63.6031 906.676 63.3379C906.274 63.07 905.96 62.6927 905.733 62.2061C905.506 61.7167 905.392 61.1385 905.392 60.4714C905.392 59.8098 905.506 59.2357 905.733 58.7491C905.96 58.2624 906.275 57.8865 906.68 57.6213C907.085 57.3562 907.552 57.2236 908.083 57.2236C908.493 57.2236 908.817 57.2919 909.054 57.4286C909.295 57.5626 909.478 57.7157 909.604 57.8879C909.732 58.0574 909.832 58.1968 909.903 58.3062H909.985V55.2059H910.953V63.6045H910.018V62.6367H909.903C909.832 62.7515 909.731 62.8964 909.6 63.0714C909.469 63.2436 909.281 63.3981 909.038 63.5348C908.795 63.6687 908.471 63.7357 908.066 63.7357ZM908.197 62.8663C908.586 62.8663 908.914 62.7652 909.182 62.5629C909.449 62.3578 909.653 62.0749 909.793 61.714C909.932 61.3504 910.002 60.9307 910.002 60.455C910.002 59.9848 909.933 59.5734 909.797 59.2207C909.66 58.8653 909.458 58.5891 909.19 58.3923C908.922 58.1927 908.591 58.0929 908.197 58.0929C907.787 58.0929 907.446 58.1982 907.172 58.4087C906.901 58.6165 906.698 58.8994 906.561 59.2576C906.427 59.613 906.36 60.0121 906.36 60.455C906.36 60.9034 906.429 61.3107 906.565 61.6771C906.705 62.0407 906.91 62.3305 907.18 62.5465C907.454 62.7597 907.793 62.8663 908.197 62.8663Z" fill="white" fill-opacity="0.6"/>
<rect x="936.904" y="40.4785" width="109.966" height="38.2528" rx="4.3305" fill="#202020"/>
<path d="M950.545 59.2042V61.2091M950.545 59.2042V54.3926C950.545 53.7282 951.094 53.1896 951.772 53.1896C952.449 53.1896 952.999 53.7282 952.999 54.3926M950.545 59.2042C950.545 58.5399 949.995 58.0013 949.318 58.0013C948.64 58.0013 948.091 58.5399 948.091 59.2042V60.8081C948.091 64.1299 950.837 66.8227 954.226 66.8227C957.614 66.8227 960.361 64.1299 960.361 60.8081V56.7984C960.361 56.134 959.811 55.5955 959.134 55.5955C958.456 55.5955 957.907 56.134 957.907 56.7984M952.999 54.3926V58.8033M952.999 54.3926V53.5906C952.999 52.9263 953.548 52.3877 954.226 52.3877C954.903 52.3877 955.453 52.9263 955.453 53.5906V54.3926M955.453 54.3926V58.8033M955.453 54.3926C955.453 53.7282 956.002 53.1896 956.68 53.1896C957.357 53.1896 957.907 53.7282 957.907 54.3926V56.7984M957.907 56.7984V58.8033" stroke="#FFFCF5" stroke-width="1.4435" stroke-linecap="round" stroke-linejoin="round"/>
<path d="M972.909 63.6045H971.843L974.927 55.2059H975.977L979.06 63.6045H977.994L975.484 56.5346H975.419L972.909 63.6045ZM973.303 60.3238H977.6V61.226H973.303V60.3238ZM981.205 55.2059V63.6045H980.237V55.2059H981.205ZM983.946 55.2059V63.6045H982.978V55.2059H983.946ZM988.638 56.1081V55.2059H994.937V56.1081H992.296V63.6045H991.279V56.1081H988.638ZM998.021 63.7357C997.452 63.7357 996.953 63.6004 996.524 63.3297C996.097 63.0591 995.764 62.6804 995.523 62.1938C995.285 61.7072 995.166 61.1385 995.166 60.4878C995.166 59.8317 995.285 59.259 995.523 58.7696C995.764 58.2802 996.097 57.9002 996.524 57.6295C996.953 57.3589 997.452 57.2236 998.021 57.2236C998.589 57.2236 999.087 57.3589 999.513 57.6295C999.943 57.9002 1000.28 58.2802 1000.51 58.7696C1000.75 59.259 1000.87 59.8317 1000.87 60.4878C1000.87 61.1385 1000.75 61.7072 1000.51 62.1938C1000.28 62.6804 999.943 63.0591 999.513 63.3297C999.087 63.6004 998.589 63.7357 998.021 63.7357ZM998.021 62.8663C998.453 62.8663 998.808 62.7556 999.087 62.5342C999.366 62.3127 999.572 62.0216 999.706 61.6607C999.84 61.2998 999.907 60.9089 999.907 60.4878C999.907 60.0668 999.84 59.6745 999.706 59.3109C999.572 58.9473 999.366 58.6534 999.087 58.4292C998.808 58.205 998.453 58.0929 998.021 58.0929C997.589 58.0929 997.233 58.205 996.954 58.4292C996.676 58.6534 996.469 58.9473 996.335 59.3109C996.201 59.6745 996.134 60.0668 996.134 60.4878C996.134 60.9089 996.201 61.2998 996.335 61.6607C996.469 62.0216 996.676 62.3127 996.954 62.5342C997.233 62.7556 997.589 62.8663 998.021 62.8663ZM1008.32 63.6045H1005.73V55.2059H1008.44C1009.25 55.2059 1009.95 55.3741 1010.53 55.7103C1011.11 56.0439 1011.55 56.5237 1011.86 57.1497C1012.17 57.7731 1012.33 58.5194 1012.33 59.3888C1012.33 60.2637 1012.17 61.0169 1011.86 61.6484C1011.55 62.2772 1011.09 62.7611 1010.5 63.1001C1009.9 63.4364 1009.18 63.6045 1008.32 63.6045ZM1006.75 62.7023H1008.26C1008.95 62.7023 1009.53 62.5683 1009.98 62.3004C1010.44 62.0325 1010.78 61.6511 1011.01 61.1563C1011.23 60.6614 1011.34 60.0723 1011.34 59.3888C1011.34 58.7108 1011.23 58.1271 1011.01 57.6377C1010.79 57.1456 1010.46 56.7684 1010.02 56.5059C1009.58 56.2407 1009.03 56.1081 1008.37 56.1081H1006.75V62.7023ZM1015.75 63.7521C1015.35 63.7521 1014.99 63.6769 1014.67 63.5266C1014.34 63.3735 1014.08 63.1534 1013.89 62.8663C1013.7 62.5765 1013.6 62.2266 1013.6 61.8165C1013.6 61.4556 1013.68 61.1631 1013.82 60.9389C1013.96 60.712 1014.15 60.5343 1014.39 60.4058C1014.63 60.2773 1014.89 60.1816 1015.18 60.1188C1015.47 60.0532 1015.76 60.0012 1016.05 59.9629C1016.43 59.9137 1016.74 59.8768 1016.98 59.8522C1017.22 59.8249 1017.4 59.7798 1017.5 59.7169C1017.62 59.654 1017.67 59.5446 1017.67 59.3888V59.356C1017.67 58.9514 1017.56 58.637 1017.34 58.4128C1017.12 58.1886 1016.79 58.0765 1016.34 58.0765C1015.88 58.0765 1015.52 58.1777 1015.26 58.38C1015 58.5823 1014.81 58.7983 1014.7 59.0279L1013.79 58.6999C1013.95 58.3171 1014.17 58.0191 1014.44 57.8059C1014.72 57.5899 1015.02 57.4395 1015.34 57.3548C1015.67 57.2673 1015.99 57.2236 1016.31 57.2236C1016.51 57.2236 1016.75 57.2482 1017.01 57.2974C1017.27 57.3439 1017.53 57.4409 1017.78 57.5885C1018.02 57.7362 1018.23 57.959 1018.39 58.257C1018.56 58.555 1018.64 58.9541 1018.64 59.4544V63.6045H1017.67V62.7515H1017.62C1017.56 62.8882 1017.45 63.0345 1017.3 63.1903C1017.14 63.3461 1016.94 63.4787 1016.68 63.5881C1016.43 63.6974 1016.12 63.7521 1015.75 63.7521ZM1015.9 62.8827C1016.28 62.8827 1016.61 62.8076 1016.87 62.6572C1017.13 62.5068 1017.33 62.3127 1017.47 62.0749C1017.6 61.837 1017.67 61.5869 1017.67 61.3244V60.4386C1017.63 60.4878 1017.54 60.533 1017.4 60.574C1017.27 60.6122 1017.11 60.6464 1016.93 60.6765C1016.75 60.7038 1016.58 60.7284 1016.41 60.7503C1016.24 60.7694 1016.1 60.7858 1016 60.7995C1015.75 60.8323 1015.51 60.8856 1015.29 60.9594C1015.08 61.0305 1014.9 61.1385 1014.77 61.2834C1014.64 61.4256 1014.57 61.6197 1014.57 61.8657C1014.57 62.202 1014.7 62.4563 1014.95 62.6285C1015.2 62.798 1015.52 62.8827 1015.9 62.8827ZM1021.83 63.6045L1019.92 57.3056H1020.93L1022.29 62.1282H1022.36L1023.7 57.3056H1024.74L1026.07 62.1118H1026.13L1027.49 57.3056H1028.51L1026.59 63.6045H1025.64L1024.26 58.7655H1024.16L1022.79 63.6045H1021.83Z" fill="white" fill-opacity="0.8"/>
</g>
</g>
</g>
<defs>
<filter id="filter0_f_367_15501" x="0.3" y="0.3" width="1120.4" height="671.4" filterUnits="userSpaceOnUse" color-interpolation-filters="sRGB">
<feFlood flood-opacity="0" result="BackgroundImageFix"/>
<feBlend mode="normal" in="SourceGraphic" in2="BackgroundImageFix" result="shape"/>
<feGaussianBlur stdDeviation="3.85" result="effect1_foregroundBlur_367_15501"/>
</filter>
<clipPath id="clip0_367_15501">
<rect x="8" y="8" width="1105" height="656" rx="30" fill="white"/>
</clipPath>
<clipPath id="clip1_367_15501">
<rect width="1105" height="723.194" fill="white" transform="translate(8 8)"/>
</clipPath>
<clipPath id="clip2_367_15501">
<rect width="1105" height="552.861" fill="white" transform="translate(8 111.146)"/>
</clipPath>
<clipPath id="clip3_367_15501">
<rect x="53.0195" y="26.4043" width="160.95" height="54.853" rx="4.3305" fill="white"/>
</clipPath>
</defs>
</svg>
