<svg width="290" height="33" viewBox="0 0 290 33" fill="none" xmlns="http://www.w3.org/2000/svg">
<path d="M0 2.68288C0 1.93541 0.255356 1.30807 0.766069 0.800859C1.25125 0.266953 1.85133 0 2.56633 0H18.2179C18.9329 0 19.533 0.266953 20.0182 0.800859C20.5289 1.30807 20.7842 1.93541 20.7842 2.68288C20.7842 3.43035 20.5417 4.07103 20.0565 4.60494C19.5458 5.11215 18.9329 5.36576 18.2179 5.36576H2.56633C1.85133 5.36576 1.23848 5.11215 0.727765 4.60494C0.242588 4.07103 0 3.43035 0 2.68288Z" fill="#C8D2FF"/>
<path d="M20.8199 11.3368V26.5931C20.8199 27.2605 21.1519 27.6075 21.8158 27.6342H35.222C35.7072 27.6075 36.1285 27.394 36.486 26.9936C36.8435 26.5664 37.0989 26.0859 37.2521 25.552C37.4308 24.9914 37.5202 24.4308 37.5202 23.8702C37.5202 23.3363 37.4308 22.8024 37.2521 22.2685C37.0989 21.7079 36.8435 21.2274 36.486 20.8269C36.1285 20.3998 35.7072 20.1863 35.222 20.1863H25.4163C24.7013 20.1863 24.0885 19.9326 23.5778 19.4254C23.0926 18.8915 22.85 18.2508 22.85 17.5034C22.85 16.7559 23.1053 16.1286 23.6161 15.6214C24.1012 15.0875 24.7013 14.8205 25.4163 14.8205H35.0688C36.8563 14.8472 38.3246 15.3811 39.4737 16.4222C40.6483 17.4366 41.4782 18.5979 41.9634 19.906C42.4741 21.1873 42.7295 22.5221 42.7295 23.9102C42.7295 25.245 42.4741 26.5664 41.9634 27.8745C41.4527 29.1559 40.6228 30.3171 39.4737 31.3582C38.3246 32.3727 36.6265 32.9199 34.3793 33H18.2919C17.5769 33 16.964 32.7597 16.4533 32.2792C15.9426 31.772 15.6745 31.1447 15.6489 30.3972V11.3368C15.6489 10.5893 15.9043 9.9753 16.415 9.49478C16.9513 8.98757 17.5769 8.73397 18.2919 8.73397C19.824 8.86744 20.6667 9.73504 20.8199 11.3368Z" fill="#C8D2FF"/>
<path d="M4.50836 10.8378C4.50836 10.0904 4.76372 9.46303 5.27443 8.95581C5.7596 8.42191 6.35969 8.15496 7.07469 8.15496H18.2179C18.9329 8.15496 19.533 8.42191 20.0182 8.95581C20.5289 9.46303 20.7842 10.0904 20.7842 10.8378C20.7842 11.5853 20.5417 12.226 20.0565 12.7599C19.5458 13.2671 18.9329 13.5207 18.2179 13.5207H7.07469C6.35969 13.5207 5.74684 13.2671 5.23612 12.7599C4.75095 12.226 4.50836 11.5853 4.50836 10.8378Z" fill="#C8D2FF"/>
<path d="M30.593 0.0883707L32.1151 4.38854L36.2285 5.97975L32.1151 7.57096L30.593 11.8711L29.0709 7.57096L24.9576 5.97975L29.0709 4.38854L30.593 0.0883707Z" fill="#C8D2FF"/>
<path d="M60.0323 31.8143H52.5362V0H74.556V6.53375H60.0323V13.8214H73.619V20.3551H60.0323V31.8143Z" fill="#C8D2FF"/>
<path d="M85.5623 32.2667C82.6888 32.2667 80.6429 31.4458 79.4248 29.8039C78.2067 28.1621 77.5976 25.8167 77.5976 22.7676V7.3379H85.0937L85.1406 20.8075C85.1406 22.3153 85.3905 23.3875 85.8902 24.0241C86.3899 24.6272 87.405 24.9288 88.9355 24.9288C90.4035 24.9288 91.3873 24.6607 91.8871 24.1246C92.4181 23.555 92.6992 22.6001 92.7304 21.2598V7.3379H100.226V31.8143H93.1052L92.7304 29.05H92.5898C92.1838 30.0217 91.3561 30.8091 90.1068 31.4123C88.8574 31.9819 87.3426 32.2667 85.5623 32.2667Z" fill="#C8D2FF"/>
<path d="M106.306 24.4764V13.9219H103.495V7.38816H107.009L108.415 1.40727H113.803V7.38816H118.909V13.9219H113.803V22.7173C113.803 23.6555 113.912 24.3089 114.131 24.6775C114.349 25.0125 114.849 25.1801 115.63 25.1801C116.129 25.1801 116.66 25.1633 117.223 25.1298C117.785 25.0628 118.347 24.9958 118.909 24.9288L119.05 25.0293V31.563C117.551 32.0321 115.567 32.2667 113.1 32.2667C110.632 32.2667 108.883 31.6635 107.853 30.4573C106.822 29.2511 106.306 27.2575 106.306 24.4764Z" fill="#C8D2FF"/>
<path d="M130.766 32.2667C127.892 32.2667 125.846 31.4458 124.628 29.8039C123.41 28.1621 122.801 25.8167 122.801 22.7676V7.3379H130.297L130.344 20.8075C130.344 22.3153 130.594 23.3875 131.094 24.0241C131.593 24.6272 132.609 24.9288 134.139 24.9288C135.607 24.9288 136.591 24.6607 137.091 24.1246C137.622 23.555 137.903 22.6001 137.934 21.2598V7.3379H145.43V31.8143H138.309L137.934 29.05H137.793C137.387 30.0217 136.56 30.8091 135.31 31.4123C134.061 31.9819 132.546 32.2667 130.766 32.2667Z" fill="#C8D2FF"/>
<path d="M158.538 31.8143H151.041V7.3379H157.132L157.741 12.3639C158.022 10.4875 158.834 9.14725 159.896 8.34309C160.958 7.50543 162.535 7.0866 164.628 7.0866C165.471 7.0866 166.237 7.13686 166.924 7.23738C167.611 7.3044 168.189 7.37141 168.657 7.43842V15.2789L168.564 15.3794C168.064 15.2454 167.486 15.1281 166.83 15.0276C166.205 14.9271 165.487 14.8768 164.675 14.8768C163.519 14.8768 162.473 15.0779 161.536 15.48C160.63 15.882 159.912 16.6694 159.381 17.8422C158.881 18.9814 158.631 20.6902 158.631 22.9686L158.538 31.8143Z" fill="#C8D2FF"/>
<path d="M197.062 23.6723C197.062 26.3528 196.281 28.3799 194.72 29.7537C193.189 31.1274 190.472 31.8143 186.568 31.8143H171.95V0H186.099C188.692 0 190.706 0.301558 192.143 0.904673C193.611 1.47428 194.642 2.32869 195.235 3.46791C195.829 4.60713 196.125 6.03115 196.125 7.73998C196.125 10.0854 195.594 11.9115 194.532 13.2183C193.502 14.4915 191.55 15.2622 188.676 15.5302V15.681C190.8 15.8485 192.471 16.2339 193.689 16.837C194.907 17.4066 195.766 18.2442 196.266 19.3499C196.797 20.4557 197.062 21.8964 197.062 23.6723ZM184.038 6.33271H179.446V12.5649H184.038C185.568 12.5649 186.677 12.3639 187.364 11.9618C188.051 11.5262 188.395 10.6885 188.395 9.4488C188.395 8.24257 188.051 7.42167 187.364 6.98608C186.677 6.5505 185.568 6.33271 184.038 6.33271ZM184.975 19.1489H179.446V25.5319H184.975C186.505 25.5319 187.614 25.3141 188.301 24.8785C188.988 24.4094 189.332 23.555 189.332 22.3153C189.332 21.042 188.988 20.2044 188.301 19.8023C187.614 19.3667 186.505 19.1489 184.975 19.1489Z" fill="#C8D2FF"/>
<path d="M221.377 31.0102C220.502 31.3452 219.284 31.6468 217.722 31.9148C216.192 32.1494 214.365 32.2667 212.241 32.2667C209.555 32.2667 207.259 31.8981 205.354 31.161C203.48 30.3903 202.059 29.1003 201.09 27.291C200.122 25.4481 199.638 22.9016 199.638 19.6515C199.638 15.2287 200.575 12.0288 202.449 10.0519C204.354 8.07504 207.29 7.0866 211.257 7.0866C214.099 7.0866 216.332 7.52219 217.957 8.39335C219.612 9.26452 220.783 10.5043 221.47 12.1126C222.189 13.6874 222.548 15.5637 222.548 17.7416C222.548 18.3783 222.517 19.0651 222.454 19.8023C222.423 20.5394 222.345 21.2598 222.22 21.9634L222.033 22.1645H206.619C206.837 23.6388 207.478 24.6105 208.54 25.0795C209.633 25.5486 211.397 25.7832 213.834 25.7832C215.458 25.7832 216.801 25.7497 217.863 25.6827C218.956 25.5821 220.065 25.4481 221.189 25.2806L221.377 25.4314V31.0102ZM216.036 16.8872C216.036 16.0831 215.911 15.3962 215.661 14.8266C215.442 14.2235 214.989 13.7711 214.302 13.4696C213.615 13.1345 212.6 12.967 211.257 12.967C209.289 12.967 207.993 13.3355 207.368 14.0727C206.775 14.7763 206.478 15.7145 206.478 16.8872H216.036Z" fill="#C8D2FF"/>
<path d="M235.201 7.0866C238.199 7.0866 240.62 7.42167 242.462 8.09179C244.305 8.76192 245.648 10.0017 246.492 11.811C247.366 13.5868 247.803 16.1668 247.803 19.551V31.8143H241.01L240.776 29.5024H240.635C240.042 30.34 239.12 31.0102 237.871 31.5128C236.622 32.0154 234.998 32.2667 232.999 32.2667C227.595 32.2667 224.893 29.5526 224.893 24.1246C224.893 21.8127 225.596 20.0033 227.002 18.6966C228.438 17.3563 230.687 16.6862 233.748 16.6862H240.682C240.463 15.2789 239.901 14.3407 238.995 13.8716C238.09 13.3691 236.544 13.1178 234.357 13.1178C232.983 13.1178 231.624 13.235 230.281 13.4696C228.969 13.6706 227.814 13.9052 226.814 14.1732L226.674 14.0727L226.721 8.24258C227.345 8.04154 228.142 7.85725 229.11 7.68972C230.078 7.48868 231.093 7.3379 232.155 7.23738C233.248 7.13686 234.263 7.0866 235.201 7.0866ZM234.919 26.336C236.856 26.336 238.308 26.0847 239.276 25.5821C240.245 25.046 240.745 24.2084 240.776 23.0692V21.8127H235.482C234.107 21.8127 233.139 22.0305 232.577 22.466C232.046 22.8681 231.78 23.421 231.78 24.1246C231.78 24.9623 232.062 25.5486 232.624 25.8837C233.186 26.1853 233.951 26.336 234.919 26.336Z" fill="#C8D2FF"/>
<path d="M253.172 24.4764V13.9219H250.361V7.38816H253.875L255.28 1.40727H260.668V7.38816H265.775V13.9219H260.668V22.7173C260.668 23.6555 260.778 24.3089 260.996 24.6775C261.215 25.0125 261.715 25.1801 262.495 25.1801C262.995 25.1801 263.526 25.1633 264.088 25.1298C264.651 25.0628 265.213 24.9958 265.775 24.9288L265.915 25.0293V31.563C264.416 32.0321 262.433 32.2667 259.965 32.2667C257.498 32.2667 255.749 31.6635 254.718 30.4573C253.687 29.2511 253.172 27.2575 253.172 24.4764Z" fill="#C8D2FF"/>
<path d="M269.105 24.8785C271.541 25.6156 274.243 25.9842 277.21 25.9842C278.647 25.9842 279.724 25.934 280.442 25.8334C281.161 25.7329 281.645 25.5654 281.895 25.3308C282.145 25.0963 282.27 24.778 282.27 24.3759C282.27 23.8063 282.067 23.4545 281.661 23.3205C281.286 23.1864 280.521 23.0021 279.365 22.7676L275.664 22.0137C273.29 21.5111 271.572 20.7237 270.51 19.6515C269.479 18.5458 268.964 16.904 268.964 14.7261C268.964 11.7775 269.776 9.76712 271.4 8.69491C273.056 7.62271 275.679 7.0866 279.271 7.0866C281.426 7.0866 283.316 7.22063 284.94 7.48868C286.596 7.72322 287.97 8.02478 289.063 8.39335L288.969 14.4748L288.829 14.6255C286.299 13.7544 283.535 13.3188 280.536 13.3188C279.068 13.3188 278.037 13.4361 277.444 13.6706C276.882 13.8716 276.601 14.2905 276.601 14.9271C276.601 15.2622 276.679 15.5302 276.835 15.7313C277.022 15.9323 277.428 16.1333 278.053 16.3344C278.678 16.5019 279.662 16.7197 281.005 16.9877L284.425 17.6914C286.33 18.127 287.736 18.8474 288.641 19.8525C289.547 20.8577 290 22.4493 290 24.6272C290 26.5371 289.672 28.0616 289.016 29.2008C288.36 30.3065 287.251 31.0939 285.69 31.563C284.159 32.0321 282.035 32.2667 279.318 32.2667C277.257 32.2667 275.351 32.1661 273.602 31.9651C271.884 31.7306 270.338 31.4625 268.964 31.161V24.979L269.105 24.8785Z" fill="#C8D2FF"/>
</svg>
